<?xml version="1.0" encoding="utf-8"?>
<!-- Generator: Adobe Illustrator 24.1.0, SVG Export Plug-In . SVG Version: 6.00 Build 0)  -->
<svg version="1.1" id="Layer_1" xmlns="http://www.w3.org/2000/svg" xmlns:xlink="http://www.w3.org/1999/xlink" x="0px" y="0px"
	 viewBox="0 0 512 512" style="enable-background:new 0 0 512 512;" xml:space="preserve">
<style type="text/css">
	.st0{fill:#E8EDFC;}
	.st1{fill:#CBD5E0;}
	.st2{fill:#CAD9FC;}
	.st3{fill:#E2E8F0;}
	.st4{fill:#F5F5F5;}
	.st5{fill:#FFFFFF;}
	.st6{fill:#A0AEC0;}
	.st7{fill:#C25959;}
</style>
<g id="_x30_19---Teaching-Equality">
	<g id="Icons_copy" transform="translate(1 1)">
		<path id="Shape" class="st0" d="M138.3,237.9l10,31.8c0.1,0.2,0.1,0.3,0.3,0.5"/>
		<path id="Shape_1_" class="st0" d="M39.1,318.5L39.1,318.5l25.4-80.6"/>
		<path id="Shape_2_" class="st1" d="M161.1,374.5c-4.7,0-8.5,3.8-8.5,8.5v101.4c0.2,8.6-5.7,16.1-14.2,17.8c-5,0.9-10-0.5-13.9-3.8
			c-3.8-3.2-6.1-8-6.1-13V383c0-4.7-3.8-8.5-8.5-8.5L161.1,374.5z"/>
		<path id="Shape_3_" class="st2" d="M92.9,374.5c-4.7,0-8.5,3.8-8.5,8.5v101.4c0.2,8.6-5.7,16.1-14.2,17.8c-5,0.9-10-0.5-13.9-3.8
			s-6.1-8-6.1-13V383c0-4.7-3.8-8.5-8.5-8.5L92.9,374.5z"/>
		<g>
			<path id="Shape_4_" class="st3" d="M263.5,240.1c0,7.7-4.6,14.7-11.7,17.7l-69.6,27.9c-6.5,2.6-13.8,2.5-20.2-0.4
				c-6.4-2.9-11.3-8.4-13.5-15l14,44.5l13.5,42.7l1.7,5.5c1,2.6,0.6,5.6-1,7.9c-1.6,2.3-4.2,3.7-7,3.7H33.1c-2.8,0-5.4-1.4-7-3.7
				c-1.6-2.3-2-5.2-1-7.9l14-44.5c-5.6,5-13.7,6.2-20.6,3h-0.1c-9-4.2-13.2-14.7-9.6-24l34.9-86.3c3.9-9.7,13.3-16,23.7-16h67.9
				c10.4,0,19.8,6.4,23.7,16l10.7,26.4c1.7,4.2,6.5,6.3,10.8,4.8l56.6-20.2c5.9-2.4,12.6-1.6,17.9,1.9
				C260.3,227.7,263.5,233.7,263.5,240.1L263.5,240.1z"/>
			<path id="Shape_5_" class="st3" d="M144.1,152.6c0,23.6-19.1,42.7-42.7,42.7s-42.7-19.1-42.7-42.7s19.1-42.7,42.7-42.7
				c2.9,0,5.7,0.3,8.5,0.9C129.8,114.8,144.1,132.3,144.1,152.6z"/>
			<path id="Shape_6_" class="st3" d="M485.4,33.1v281.6h-68.3v-25.6c0-4.7-3.8-8.5-8.5-8.5h-51.2c-4.7,0-8.5,3.8-8.5,8.5v25.6
				H162.5l-14-44.5c2.2,6.6,7.1,12.1,13.5,15c6.4,2.9,13.7,3.1,20.2,0.4l69.6-27.9c6.4-2.6,10.8-8.5,11.7-15.3
				c0.9-6.8-1.9-13.6-7.4-17.8c-5.5-4.2-12.7-5.1-19.1-2.5l-56.6,20.2c-4.3,1.5-9-0.6-10.8-4.8l-10.7-26.4c-3.9-9.7-13.3-16-23.7-16
				h-34c21.9,0,40.3-16.6,42.5-38.4c2.2-21.8-12.5-41.7-34-46.1V33.1c0-14.1,11.5-25.6,25.6-25.6h324.3
				C473.9,7.5,485.4,19,485.4,33.1z"/>
		</g>
		<path id="Shape_7_" class="st1" d="M459.8,7.5h-25.6c14.1,0,25.6,11.5,25.6,25.6v281.6h25.6V33.1C485.4,19,473.9,7.5,459.8,7.5z"
			/>
		<path id="Shape_8_" class="st4" d="M417.1,289.1v25.6h-68.3v-25.6c0-4.7,3.8-8.5,8.5-8.5h51.2
			C413.3,280.6,417.1,284.4,417.1,289.1z"/>
		<path id="Shape_9_" class="st3" d="M502.5,323.3v25.6c0,4.7-3.8,8.5-8.5,8.5H176l-13.5-42.7h331.4
			C498.6,314.7,502.5,318.6,502.5,323.3z"/>
		<path id="Shape_10_" class="st1" d="M493.9,314.7h-25.6c4.7,0,8.5,3.8,8.5,8.5v25.6c0,4.7-3.8,8.5-8.5,8.5h25.6
			c4.7,0,8.5-3.8,8.5-8.5v-25.6C502.5,318.6,498.6,314.7,493.9,314.7z"/>
	</g>
	<g id="Icons" transform="translate(1)">
		<path id="Shape_11_" class="st5" d="M136.1,196.3c0-2.3,0.9,0-9.1,0H136.1z"/>
		<path id="Shape_12_" class="st5" d="M101.4,196.3c10,0,9-2.3,9.1,0H127c-16.3,0-31.1-9.3-38.3-23.9c-7.2-14.6-5.4-32,4.5-44.9
			s26.3-19,42.3-15.7V34.1c-0.2-6.6,2.2-13,6.6-17.8c4.5-4.8,10.7-7.6,17.3-7.8h-23.9c-6.9-0.2-13.5,2.4-18.4,7.2
			c-4.9,4.9-7.5,11.5-7.2,18.4v77.7c-15.9-3.2-32.3,2.9-42.3,15.7c-9.9,12.9-11.7,30.3-4.5,44.9C70.3,187,85.1,196.3,101.4,196.3z"
			/>
		<path id="Shape_13_" class="st5" d="M18.5,322.5L18.5,322.5c1.4,0.6,2.8,1.1,4.3,1.4c5.8,1.3,11.9-0.3,16.3-4.4h0.1l-14,44.5
			c-1,2.6-0.6,5.6,1,7.9c1.6,2.3,4.2,3.7,7,3.7h8.5c4.7,0,8.5,3.8,8.5,8.5v102.4c0,7.1,4.4,13.5,11,16s14.2,0.5,18.8-4.9
			c-2.7-3.1-4.2-7-4.2-11.1V384c0-4.7-3.8-8.5-8.5-8.5h-8.5c-6,0-19.1-3-17.1-8.5l-17.1,8.5c0-11.4-1.4-3.1,8.5-42.7
			c-4.4,3.8,22.9-24.3,17.1-25.6c-1.7-0.3-4.3,15.3-6.1,15.3c-9-4.3-14.5,2.6-10.9-6.7l36.2-103.5c3.9-9.7,13.3-16,23.7-16H67.4
			c-10.4,0-19.8,6.3-23.7,16L8.8,298.5C5.2,307.8,9.4,318.3,18.5,322.5L18.5,322.5z"/>
	</g>
	<path id="Rectangle-path" class="st5" d="M102.4,43.5h17.1v68.3h-17.1V43.5z"/>
	<g>
		<path id="Shape_14_" class="st6" d="M111.1,86.2c-4.7,0-8.5-3.8-8.5-8.5c0-4.7,3.8-8.5,8.5-8.5c4.7,0,8.5,3.8,8.5,8.5
			C119.6,82.4,115.8,86.2,111.1,86.2z"/>
		<path id="Shape_15_" class="st7" d="M494.9,307.2V34.1c0-18.9-15.3-34.1-34.1-34.1H136.5c-11.2,0-21.8,5.6-28.2,14.8
			c-5.2,8.6-7.3,18.7-6,28.7c0,4.7,3.8,8.5,8.5,8.5c4.7,0,8.5-3.8,8.5-8.5c-1.1-6.5,0-13.2,3-19.1c3.2-4.6,8.5-7.4,14.1-7.4h324.3
			c9.4,0,17.1,7.6,17.1,17.1v273.1h-51.2v-17.1c0-9.4-7.6-17.1-17.1-17.1h-51.2c-9.4,0-17.1,7.6-17.1,17.1v17.1H169.8l-3.4-10.8
			c6.7,1.5,13.7,0.9,20-1.7l69.8-28c13.8-6,20.3-22,14.6-36c-5.7-14-21.5-20.8-35.6-15.5l-56.5,20.2L168,209.1
			c-4.7-11.6-15.4-19.7-27.8-21c18.6-20.4,17.7-51.9-2.2-71.2s-51.4-19.2-71.2,0S46,167.6,64.6,188c-12.4,1.4-23.1,9.4-27.8,21
			l-35,86.4c-3.2,8.4-2.2,17.8,2.8,25.2s13.3,12,22.3,12.1L18.1,361c-2,5.2-1.2,11.1,2,15.7c3.2,4.6,8.4,7.3,14,7.3h8.5v102.4
			c0,7.5,3.4,14.7,9.1,19.6s13.4,6.9,20.8,5.7c12.5-2.5,21.4-13.5,21.3-26.3V384h17.1v102.4c0,14.1,11.5,25.6,25.6,25.6
			c14.4-0.3,25.9-12.2,25.6-26.6V384h8.5c4.5,0,8.9-1.8,12.1-5c3.2-3.2,5-7.6,4.9-12.1h307.3c9.4,0,17.1-7.6,17.1-17.1v-25.6
			C512,314.8,504.4,307.2,494.9,307.2L494.9,307.2z M358.4,290.1h51.2v17.1h-51.2V290.1z M102.4,119.5c18.9,0,34.1,15.3,34.1,34.1
			s-15.3,34.1-34.1,34.1s-34.1-15.3-34.1-34.1S83.5,119.5,102.4,119.5z M162.1,366.9c-9.4,0-17.1,7.6-17.1,17.1v101.4
			c0.4,3.5-1.4,6.8-4.5,8.5c-3.1,1.7-6.8,1.3-9.5-0.9c-1.9-1.6-3-4-3-6.5V384c0-9.4-7.6-17.1-17.1-17.1H93.9
			c-9.4,0-17.1,7.6-17.1,17.1v101.4c0.4,3.5-1.4,6.8-4.5,8.5c-3.1,1.7-6.8,1.3-9.5-0.9c-1.9-1.6-3-4-3-6.5V384
			c0-9.4-7.6-17.1-17.1-17.1l-8.4-0.4c32.9-104.7,17.7-56.1,39.4-125c1.4-4.5-1.1-9.3-5.6-10.7s-9.3,1.1-10.7,5.6l-24.5,77.7
			c-3.8,2.3-8.6,2-12-0.8s-4.7-7.5-3.2-11.6l34.9-86.3c2.6-6.4,8.9-10.6,15.8-10.6h67.9c7,0,13.2,4.2,15.8,10.7l10.7,26.4
			c3.4,8.5,12.9,12.7,21.5,9.7l56.8-20.3c5.4-2.1,11.5,0.4,13.8,5.8c2.3,5.3-0.1,11.5-5.4,14L180,278.8c-4.4,1.8-9.3,1.6-13.6-0.4
			c-4.3-2-7.6-5.7-9-10.3c-0.3-0.9-3.2-10.2-10-31.8c-0.9-2.9-3.3-5.1-6.3-5.8c-3-0.7-6.1,0.3-8.1,2.6c-2.1,2.2-2.8,5.4-1.9,8.3
			c5,16,34.5,109.4,39.5,125.4L162.1,366.9z M494.9,349.9H183.2l-8.1-25.6h319.8L494.9,349.9z"/>
		<path id="Shape_16_" class="st6" d="M247.5,59.7c0-4.7-3.8-8.5-8.5-8.5h-25.6c-3.5,0-6.6,2.1-7.9,5.3c-0.9,2.2-0.7,1-0.7,28.9
			c0,4.7,3.8,8.5,8.5,8.5s8.5-3.8,8.5-8.5v-5l18,18c-9.5,13.4-12,30.6-6.7,46.2s17.8,27.7,33.6,32.5c4.8,15.8,16.9,28.2,32.5,33.6
			c15.6,5.3,32.8,2.8,46.2-6.7l13.8,13.8l-6.8,6.8c-2.4,2.4-3.2,6.1-1.8,9.3c1.3,3.2,4.4,5.3,7.9,5.3c4.2,0,5.2-1.7,12.8-9.3
			c6.4,6.4,8.2,9.3,12.8,9.3c3.5,0,6.6-2.1,7.9-5.3c1.3-3.2,0.6-6.9-1.8-9.3l-6.8-6.8l6.8-6.8c3.2-3.3,3.2-8.7-0.1-12
			c-3.3-3.3-8.6-3.3-12-0.1l-6.8,6.8l-13.8-13.8c9.5-13.4,12-30.6,6.7-46.2c-5.3-15.6-17.8-27.7-33.6-32.5
			c-4.8-15.8-16.9-28.2-32.5-33.6c-15.6-5.3-32.8-2.8-46.2,6.7l-18-18h5C243.6,68.3,247.5,64.4,247.5,59.7L247.5,59.7z M349.9,162.1
			c-0.1,15.4-10.5,28.8-25.4,32.7c-14.9,3.9-30.6-2.6-38.3-15.9c24.6-2.2,44.2-21.7,46.4-46.4C343.3,138.5,349.9,149.9,349.9,162.1
			L349.9,162.1z M281.6,161.8c0.1-18.7,15.4-33.8,34.1-33.8c0.1,9-3.5,17.7-10,24.1C299.4,158.4,290.6,162,281.6,161.8z
			 M311.1,111.2c-24.6,2.2-44.1,21.7-46.4,46.3c-12.5-7.1-19.2-21.3-16.7-35.4c2.5-14.1,13.6-25.2,27.7-27.7S304,98.6,311.1,111.2z"
			/>
	</g>
</g>
</svg>
