<?xml version="1.0" encoding="utf-8"?>
<!-- Generator: Adobe Illustrator 24.1.0, SVG Export Plug-In . SVG Version: 6.00 Build 0)  -->
<svg version="1.1" id="Layer_1" xmlns="http://www.w3.org/2000/svg" xmlns:xlink="http://www.w3.org/1999/xlink" x="0px" y="0px"
	 viewBox="0 0 512 512" style="enable-background:new 0 0 512 512;" xml:space="preserve">
<style type="text/css">
	.st0{fill:#E2E8F0;}
	.st1{fill:#CBD5E0;}
	.st2{fill:#FFFFFF;}
	.st3{fill:#C25959;}
</style>
<g id="Page-1">
	<g id="_x30_13---Couple-Magic-Powers">
		<path id="Shape" class="st0" d="M162.1,298.7V378c0,20.2-8,39.7-22.3,54l-66.6,66.5c-3.2,3.2-7.6,4.9-12.1,4.9H25.6
			c-9.4,0-17-7.7-17.1-17.1V443c0-4.9,2.1-9.7,5.9-12.9l51.1-44.5c7.2-6.4,11.3-15.6,11.3-25.3V174.9c0-11.8,9.6-21.3,21.3-21.3
			s21.3,9.6,21.3,21.3v98.1h17.1C150.7,273.1,162.1,284.5,162.1,298.7L162.1,298.7z"/>
		<path id="Shape_1_" class="st1" d="M136.5,273.1h-17.1v-97.4c0.2-9.5-5.8-18-14.8-21.1c-6.6-2.1-13.8-0.8-19.3,3.4
			c5.4,4,8.5,10.3,8.5,17V256c0,9.4,7.6,17.1,17.1,17.1c14.1,0,25.6,11.5,25.6,25.6V378c0,20.2-8,39.7-22.3,54l-66.6,66.5
			c-3.2,3.2-7.6,4.9-12.1,4.9h25.6c4.5,0,8.9-1.8,12.1-4.9l66.6-66.5c14.3-14.4,22.3-33.8,22.3-54v-79.4
			C162.1,284.5,150.7,273.1,136.5,273.1L136.5,273.1z"/>
		<path id="Shape_2_" class="st0" d="M503.5,443v43.4c0,9.4-7.7,17-17.1,17.1h-35.6c-4.5,0-8.9-1.8-12.1-4.9L372.1,432
			c-14.3-14.4-22.3-33.8-22.3-54v-79.4c0-14.1,11.5-25.6,25.6-25.6h17.1v-98.1c0-11.8,9.6-21.3,21.3-21.3c11.8,0,21.3,9.6,21.3,21.3
			v185.4c0,9.6,4.1,18.8,11.3,25.3l51.1,44.5C501.3,433.3,503.5,438,503.5,443L503.5,443z"/>
		<path id="Shape_3_" class="st1" d="M497.6,430.1l-51.1-44.5c-7.2-6.4-11.3-15.6-11.3-25.3V174.9c0-8.1-4.5-15.5-11.8-19.1
			c-7.2-3.6-15.9-2.8-22.4,2.1c0.8,0.6,1.6,1.2,2.3,1.9c4,4,6.3,9.4,6.2,15.1v185.4c0,9.6,4.1,18.8,11.3,25.3l51.1,44.5
			c3.7,3.2,5.9,7.9,5.9,12.9v43.4c0,9.4-7.7,17-17.1,17.1h25.6c9.4,0,17-7.7,17.1-17.1V443C503.5,438,501.3,433.3,497.6,430.1
			L497.6,430.1z"/>
		<path id="Shape_4_" class="st2" d="M25.6,503.5h25.6c-9.4,0-17-7.7-17.1-17.1V443c0-4.9,2.1-9.7,5.9-12.9l51.1-44.5
			c7.2-6.4,11.3-15.6,11.3-25.3V174.9c-0.1-6.7,3-12.9,8.4-16.8c-7.5-5.8-18-5.9-25.5-0.1c-5.4,4-8.5,10.3-8.5,17v185.4
			c0,9.6-4.1,18.8-11.3,25.3l-51.1,44.5c-3.7,3.2-5.9,7.9-5.9,12.9v43.4C8.6,495.8,16.2,503.4,25.6,503.5z"/>
		<path id="Rectangle-path" class="st2" d="M68.3,174.9h17.1v68.3H68.3V174.9z"/>
		<g>
			<path id="Shape_5_" class="st3" d="M77,217.6c-4.7,0-8.6-3.8-8.6-8.5c0-4.7,3.8-8.6,8.5-8.6H77c4.7,0,8.5,3.8,8.5,8.5
				S81.7,217.6,77,217.6z"/>
			<path id="Shape_6_" class="st3" d="M25.6,512h35.6c6.8,0,13.3-2.7,18.1-7.5l66.6-66.5c15.9-15.9,24.8-37.5,24.7-60v-79.4
				c0-18.9-15.3-34.1-34.1-34.1H128v-89.6c0-16.5-13.4-29.9-29.9-29.9s-29.9,13.4-29.9,29.9c0,4.7,3.8,8.5,8.5,8.5
				c4.7,0,8.5-3.8,8.5-8.5c0-7.1,5.7-12.8,12.8-12.8s12.8,5.7,12.8,12.8v166.4c0,4.7,3.8,8.5,8.5,8.5c4.7,0,8.5-3.8,8.5-8.5v-59.7
				h8.5c9.4,0,17.1,7.6,17.1,17.1V378c0,18-7.1,35.3-19.7,48l-66.6,66.4c-1.6,1.6-3.8,2.5-6,2.5H25.6c-4.7,0-8.5-3.8-8.5-8.5V443
				c0-2.5,1.1-4.8,2.9-6.4L71.3,392c8.9-8.1,14-19.6,14-31.6V243.2c0-4.7-3.8-8.5-8.5-8.5c-4.7,0-8.5,3.8-8.5,8.5v117.1
				c0,7.2-3,14-8.3,18.9L8.8,423.7C3.2,428.5,0,435.6,0,443v43.4C0,500.5,11.5,512,25.6,512L25.6,512z"/>
			<path id="Shape_7_" class="st3" d="M452.2,379.3c-5.4-4.9-8.4-11.8-8.4-19V174.9c0-16.5-13.4-29.9-29.9-29.9
				c-16.5,0-29.9,13.4-29.9,29.9v89.6h-8.5c-18.9,0-34.1,15.3-34.1,34.1V378c-0.1,22.5,8.8,44.1,24.7,60.1l66.6,66.4
				c4.8,4.8,11.3,7.5,18.1,7.4h35.6c14.1,0,25.6-11.5,25.6-25.6V443c0-7.4-3.2-14.5-8.8-19.3L452.2,379.3z M494.9,486.4
				c0,4.7-3.8,8.5-8.5,8.5h-35.6c-2.3,0-4.4-0.9-6-2.5L378.2,426c-12.7-12.7-19.8-30-19.8-48v-79.4c0-9.4,7.6-17.1,17.1-17.1h8.5
				v59.7c0,4.7,3.8,8.5,8.5,8.5s8.5-3.8,8.5-8.5V174.9c0-7.1,5.7-12.8,12.8-12.8c7.1,0,12.8,5.7,12.8,12.8v185.4
				c0,12.1,5.2,23.6,14.2,31.8l51.2,44.5c1.9,1.6,2.9,4,2.9,6.4L494.9,486.4z"/>
			<path id="Shape_8_" class="st3" d="M290.1,128c0-18.9-15.3-34.1-34.1-34.1c-18.9,0-34.1,15.3-34.1,34.1
				c0,18.9,15.3,34.1,34.1,34.1S290.1,146.9,290.1,128z M256,145.1c-9.4,0-17.1-7.6-17.1-17.1c0-9.4,7.6-17.1,17.1-17.1
				c9.4,0,17.1,7.6,17.1,17.1S265.4,145.1,256,145.1z"/>
			<path id="Shape_9_" class="st3" d="M236.5,62.6c-22.1,6.5-39.4,23.8-45.9,45.9c-1.3,4.5,1.2,9.3,5.7,10.6
				c0.8,0.2,1.6,0.4,2.4,0.4c3.8,0,7.1-2.5,8.2-6.1c4.9-16.6,17.9-29.5,34.4-34.4c4.5-1.4,7-6.1,5.7-10.6
				C245.7,63.8,241,61.3,236.5,62.6z"/>
			<path id="Shape_10_" class="st3" d="M241.4,177.1c-16.6-4.9-29.5-17.9-34.4-34.4c-1.4-4.5-6.1-7-10.6-5.7
				c-4.5,1.3-7.1,6-5.8,10.6c6.5,22.1,23.8,39.4,45.9,45.9c0.8,0.2,1.6,0.4,2.4,0.4c4.2,0,7.8-3.1,8.5-7.3S245.4,178.3,241.4,177.1z
				"/>
			<path id="Shape_11_" class="st3" d="M273.1,193.8c0.8,0,1.6-0.1,2.4-0.4c22.1-6.5,39.4-23.8,45.9-45.9c1.3-4.5-1.3-9.2-5.8-10.6
				s-9.2,1.2-10.6,5.7c-4.9,16.6-17.9,29.5-34.4,34.4c-4.1,1.2-6.6,5.2-6,9.4S268.8,193.8,273.1,193.8z"/>
			<path id="Shape_12_" class="st3" d="M305.1,113.4c1.1,3.6,4.4,6.1,8.2,6.1c0.8,0,1.6-0.1,2.4-0.4c4.5-1.3,7.1-6.1,5.7-10.6
				c-6.5-22.1-23.8-39.4-45.9-45.9c-4.5-1.3-9.2,1.3-10.6,5.8c-1.3,4.5,1.2,9.2,5.7,10.6C287.2,83.8,300.2,96.8,305.1,113.4z"/>
			<path id="Shape_13_" class="st3" d="M162.1,119.3c0.5,0.1,1,0.1,1.6,0.1c4.1,0,7.6-2.9,8.4-7c6.5-34.7,33.7-61.9,68.4-68.4
				c4.5-1,7.3-5.4,6.5-9.9c-0.8-4.5-5-7.5-9.6-6.9c-41.7,7.8-74.3,40.4-82.1,82.1C154.5,114,157.5,118.5,162.1,119.3L162.1,119.3z"
				/>
			<path id="Shape_14_" class="st3" d="M237.4,228.7c0.5,0.1,1,0.1,1.6,0.1c4.4,0,8.1-3.4,8.5-7.8c0.4-4.4-2.6-8.4-7-9.2
				c-34.7-6.5-61.9-33.7-68.4-68.4c-0.9-4.6-5.3-7.7-9.9-6.8c-4.6,0.9-7.7,5.3-6.8,9.9C163.1,188.3,195.7,220.9,237.4,228.7
				L237.4,228.7z"/>
			<path id="Shape_15_" class="st3" d="M273.1,228.9c0.5,0,1-0.1,1.6-0.1c41.7-7.8,74.3-40.4,82.1-82.1c0.9-4.6-2.2-9.1-6.8-9.9
				c-4.6-0.9-9.1,2.2-9.9,6.8c-6.5,34.7-33.7,61.9-68.4,68.4c-4.4,0.8-7.4,4.8-7,9.2C264.9,225.5,268.6,228.9,273.1,228.9
				L273.1,228.9z"/>
			<path id="Shape_16_" class="st3" d="M274.6,27.3c-4.6-0.9-9.1,2.2-9.9,6.8c-0.9,4.6,2.2,9.1,6.8,9.9
				c34.7,6.5,61.9,33.7,68.4,68.4c0.7,4,4.3,7,8.4,7c0.5,0,1-0.1,1.6-0.2c4.6-0.9,7.7-5.3,6.8-9.9C348.9,67.7,316.3,35.1,274.6,27.3
				z"/>
			<circle id="Oval" class="st3" cx="256" cy="8.5" r="8.5"/>
			<circle id="Oval_1_" class="st3" cx="256" cy="247.5" r="8.5"/>
			<circle id="Oval_2_" class="st3" cx="136.5" cy="128" r="8.5"/>
			<circle id="Oval_3_" class="st3" cx="375.5" cy="128" r="8.5"/>
		</g>
	</g>
</g>
</svg>
