<?xml version="1.0" encoding="utf-8"?>
<!-- Generator: Adobe Illustrator 24.1.0, SVG Export Plug-In . SVG Version: 6.00 Build 0)  -->
<svg version="1.1" id="Layer_1" xmlns="http://www.w3.org/2000/svg" xmlns:xlink="http://www.w3.org/1999/xlink" x="0px" y="0px"
	 viewBox="0 0 512 512" style="enable-background:new 0 0 512 512;" xml:space="preserve">
<style type="text/css">
	.st0{fill:#CBD5E0;}
	.st1{fill:#A0AEC0;}
	.st2{fill:#E2E8F0;}
	.st3{fill:#FFFFFF;}
	.st4{fill:#C25959;}
</style>
<path class="st0" d="M391.1,266.6c-10.2,19.3-25.6,35.2-37.3,53.6c-12.2,19.2-19.5,41.1-21.3,63.8H179.4
	c-1.8-22.7-9.2-44.6-21.4-63.8c-11.6-18.3-27-34.3-37.2-53.6c-20.7-38.9-30.1-66.8-26.2-110.8C102.4,77.6,164.8,16,243.2,9.1
	c4.2-0.4,8.5-0.6,12.7-0.6c83.5,0.7,153,64.2,161.4,147.3C421.2,199.8,411.8,227.7,391.1,266.6z"/>
<path class="st1" d="M324.3,435.2v42.7c0,14.1-11.5,25.6-25.6,25.6h-85.3c-0.9,0-1.7,0-2.6-0.2h-0.1c-6.7-0.6-12.8-3.9-17.1-9.1
	c-3.8-4.6-5.9-10.3-5.9-16.3v-42.7H324.3z"/>
<path class="st0" d="M349.9,409.6c0,14.1-11.5,25.6-25.6,25.6H187.7c-14.1,0-25.6-11.5-25.6-25.6c0-14.1,11.5-25.6,25.6-25.6h136.5
	C338.4,384,349.9,395.5,349.9,409.6z"/>
<path class="st2" d="M365.7,266.6c-10.2,19.3-25.6,35.2-37.2,53.6c-12.2,19.2-19.6,41.1-21.4,63.8H179.4
	c-1.8-22.7-9.2-44.6-21.4-63.8c-11.6-18.3-27-34.3-37.2-53.6c-20.7-38.9-30.1-66.8-26.2-110.8C102.4,77.6,164.8,16,243.2,9.1
	C321.6,16,384,77.6,391.9,155.8C395.8,199.8,386.4,227.7,365.7,266.6z"/>
<path class="st0" d="M298.8,435.2v42.7c0,14.1-11.5,25.6-25.6,25.6h-59.9c-0.9,0-1.7,0-2.6-0.2h-0.1c-6.7-0.6-12.8-3.9-17.1-9.1
	c-3.8-4.6-5.9-10.3-5.9-16.3v-42.7H298.8z"/>
<path class="st2" d="M324.4,409.6c0,14.1-11.5,25.6-25.6,25.6H187.7c-14.1,0-25.6-11.5-25.6-25.6c0-14.1,11.5-25.6,25.6-25.6h111.1
	C313,384,324.4,395.5,324.4,409.6z"/>
<path class="st3" d="M158,320.2c12.2,19.2,19.6,41.1,21.4,63.8h8.4c-14.1,0-25.6,11.5-25.6,25.6c0,14.1,11.5,25.6,25.6,25.6v42.7
	c0,6,2.1,11.7,5.9,16.3c4.2,5.2,10.4,8.5,17.1,9.1h0.1c0.8,0.1,1.7,0.2,2.6,0.2h25.6c-0.9,0-1.7,0-2.6-0.2h-0.1
	c-6.7-0.6-12.8-3.9-17.1-9.1c-3.8-4.6-5.9-10.3-5.9-16.3v-42.7c-14.1,0-25.6-11.5-25.6-25.6c0-14.1,11.5-25.6,25.6-25.6H205
	c-1.8-22.7-9.2-44.6-21.4-63.8c-11.6-18.3-27-34.3-37.2-53.6c-20.7-38.9-30.1-66.8-26.2-110.8C128,77.7,190.3,16.1,268.6,9.2
	c-4.2-0.3-8.4-0.6-12.6-0.6c-4.2,0-8.5,0.2-12.7,0.6C164.8,16,102.4,77.6,94.6,155.8c-3.9,43.9,5.5,71.8,26.2,110.8
	C131,285.9,146.3,301.8,158,320.2z"/>
<path class="st3" d="M86,155.1C95,67.6,168.1,0.9,256,0v17.1c-41.1,0.4-80.3,17.1-109.1,46.4c-24.9,25-40.4,57.9-43.9,93.1L86,155.1
	z"/>
<g>
	<path class="st4" d="M93.2,119.9c-2.1,5.6-3,11.6-4.5,17.4c-1.2,5.9-1.8,11.9-2.6,17.8c-4.1,46.5,6.3,76.5,27.1,115.6
		c6.4,11.4,13.8,22.2,22,32.4c5.6,7.4,10.9,14.3,15.6,21.8c10.6,16.8,17.4,35.8,19.6,55.6c-11.9,7-18.4,20.4-16.5,34
		c1.9,13.6,11.9,24.7,25.2,28.1v35.3c0,11.7,6.1,22.6,16,28.8c0.5,0.3,1,0.6,1.6,0.9c5,2.9,10.7,4.4,16.5,4.5h85.3
		c18.9,0,34.1-15.3,34.1-34.1v-35.3c13.4-3.4,23.4-14.5,25.3-28.2s-4.7-27.2-16.7-34.1c2.3-19.7,9-38.7,19.6-55.5
		c4.7-7.4,10-14.4,15.6-21.8c8.2-10.2,15.5-21,22-32.4c20.8-39.1,31.3-69.1,27.1-115.6C417.3,67.5,344,0.5,256,0h-0.3
		c-45.5,0.5-89,19-120.9,51.5c-2.2,2-4.2,4.2-6.2,6.5c-1.5,1.7-2.3,4-2.2,6.3c0.2,2.3,1.2,4.4,3,5.9c3.6,2.9,8.8,2.5,11.9-0.9
		c1.7-2.1,3.6-4,5.6-5.8c41.6-42.9,104.5-57.6,160.8-37.6c56.3,20,95.8,71.1,101,130.7c3.8,42.5-5.5,69-25.2,106
		c-6,10.6-12.8,20.6-20.5,30c-5.6,7.3-11.4,14.9-16.5,23c-11.5,18.2-18.9,38.6-21.8,59.8h-34.6V238.9h25.6
		c18.9,0,34.1-15.3,34.1-34.1s-15.3-34.1-34.1-34.1h-8.5c-18.9,0-34.1,15.3-34.1,34.1v17.1h-34.1v-17.1c0-18.9-15.3-34.1-34.1-34.1
		h-8.5c-18.9,0-34.1,15.3-34.1,34.1s15.3,34.1,34.1,34.1h25.6v136.5H187c-2.9-21.3-10.3-41.7-21.8-59.8c-5.1-8.1-10.9-15.6-16.5-23
		c-7.6-9.4-14.5-19.5-20.5-30c-19.7-37-29-63.6-25.2-106c0.9-5.3,1.3-10.7,2.4-16c1.4-5.2,2.2-10.5,4.1-15.6c1.3-4.4-1-9.1-5.4-10.7
		c-2.2-0.8-4.6-0.6-6.6,0.4C95.4,115.8,93.9,117.7,93.2,119.9z M290.1,204.8c0-9.4,7.6-17.1,17.1-17.1h8.5c9.4,0,17.1,7.6,17.1,17.1
		s-7.6,17.1-17.1,17.1h-25.6V204.8z M200.8,489.4c-2.9-3.1-4.5-7.2-4.5-11.5v-34.1h82.1L200.8,489.4z M315.7,477.9
		c0,9.4-7.6,17.1-17.1,17.1H225l87.1-51.2h3.7V477.9z M196.3,221.9c-9.4,0-17.1-7.6-17.1-17.1s7.6-17.1,17.1-17.1h8.5
		c9.4,0,17.1,7.6,17.1,17.1v17.1H196.3z M238.9,238.9h34.1v136.5h-34.1V238.9z M324.3,392.5c9.4,0,17.1,7.6,17.1,17.1
		s-7.6,17.1-17.1,17.1H187.7c-9.4,0-17.1-7.6-17.1-17.1s7.6-17.1,17.1-17.1H324.3z"/>
	<path class="st4" d="M121.8,86.3c-0.6-0.9-1.4-1.7-2.3-2.3c-1.9-1.2-4.3-1.6-6.5-1.1c-4.6,1.4-7.3,6.2-6.2,10.9l0.6,1.5
		c0.3,0.5,0.6,1,1,1.4c0.3,0.4,0.7,0.8,1.2,1.2c0.5,0.3,0.9,0.7,1.4,0.9c2,1,4.3,1.2,6.5,0.6c1.1-0.3,2-0.8,2.9-1.5
		c2.6-2,3.8-5.4,2.9-8.6C122.9,88.2,122.4,87.2,121.8,86.3z"/>
	<path class="st4" d="M127.8,167.3h0.8c4.4,0,8.1-3.4,8.5-7.8c6.6-60.9,57.6-107.3,118.8-108.4c4.7,0,8.5-3.8,8.5-8.5
		c0-4.7-3.8-8.5-8.5-8.5C185.9,35.3,127.6,88.4,120,158.1C119.6,162.8,123.1,166.9,127.8,167.3z"/>
	<path class="st4" d="M0,170.7c0,4.7,3.8,8.5,8.5,8.5h42.7c4.7,0,8.5-3.8,8.5-8.5c0-4.7-3.8-8.5-8.5-8.5H8.5
		C3.8,162.1,0,166,0,170.7z"/>
	<path class="st4" d="M74.4,265.7L37.4,287c-2.7,1.5-4.3,4.3-4.3,7.4c0,3.1,1.6,5.9,4.3,7.4c2.7,1.5,5.9,1.5,8.6,0l36.9-21.3
		c4-2.4,5.4-7.6,3.1-11.6S78.5,263.4,74.4,265.7z"/>
	<path class="st4" d="M426,268.8c-2.4,4.1-1,9.3,3.1,11.7l36.9,21.3c4.1,2.3,9.3,0.9,11.6-3.2c2.3-4.1,1-9.3-3.1-11.6l-36.9-21.3
		C433.6,263.3,428.3,264.7,426,268.8z"/>
	<path class="st4" d="M503.5,162.1h-42.7c-4.7,0-8.5,3.8-8.5,8.5c0,4.7,3.8,8.5,8.5,8.5h42.7c4.7,0,8.5-3.8,8.5-8.5
		C512,166,508.2,162.1,503.5,162.1z"/>
	<path class="st4" d="M477.7,42.7c-2.4-4.1-7.6-5.5-11.7-3.1l-36.9,21.3c-2.7,1.5-4.3,4.3-4.3,7.4c0,3.1,1.6,5.9,4.3,7.4
		c2.7,1.5,5.9,1.5,8.6,0l36.9-21.3C478.7,52,480.1,46.7,477.7,42.7z"/>
	<path class="st4" d="M82.9,60.9L46,39.5c-4.1-2.3-9.3-0.9-11.6,3.2c-2.3,4.1-1,9.3,3.1,11.6l36.9,21.3c2.6,1.6,5.9,1.6,8.6,0
		c2.7-1.5,4.3-4.4,4.3-7.4C87.2,65.2,85.6,62.4,82.9,60.9z"/>
</g>
</svg>
