<?xml version="1.0" encoding="utf-8"?>
<!-- Generator: Adobe Illustrator 24.1.2, SVG Export Plug-In . SVG Version: 6.00 Build 0)  -->
<svg version="1.1" id="Capa_1" xmlns="http://www.w3.org/2000/svg" xmlns:xlink="http://www.w3.org/1999/xlink" x="0px" y="0px"
	 viewBox="0 0 512 512" style="enable-background:new 0 0 512 512;" xml:space="preserve">
<style type="text/css">
	.st0{fill:#FFFFFF;}
	.st1{fill:#718096;}
</style>
<g>
	<g>
		<path class="st0" d="M174.9,65.6l-6.2-48.6C167,4.6,154.2-3.1,142.4,1.2c-12.3,4.6-17.1,19.4-9.8,30.3l26.6,40
			C164.2,79,176,74.6,174.9,65.6z M145.2,23.2c-1.2-1.8-0.9-3.6-0.6-4.5c1.6-5,8.5-4.5,9.1,0.3l2.7,20.9L145.2,23.2z"/>
	</g>
</g>
<g>
	<g>
		<path class="st0" d="M133.9,88.3l-26.6-39.9c-12-18.1-39.9-6.9-36.8,13.6c0.9,5.9,4.4,11,9.6,14c44.4,25.1,42.6,25.6,46.7,25.6
			C133.5,101.7,137.8,94.1,133.9,88.3z M87.6,63c-1.6-0.9-2.1-2.4-2.2-3.2c-0.8-5,6.4-7.4,9.3-3l11.1,16.7L87.6,63z"/>
	</g>
</g>
<g>
	<g>
		<path class="st0" d="M105.9,119.2l-46.7-13.7c-20.2-5.9-34.5,20-18.6,34.1c4.6,4.1,10.7,5.8,16.8,4.7l47.6-8.4
			C113.9,134.3,114.6,121.8,105.9,119.2z M54.8,129.5c-3.1,0.6-5.9-1.9-5.8-5.1c0.2-3,3.1-5.1,6-4.3l19.9,5.8L54.8,129.5z"/>
	</g>
</g>
<g>
	<g>
		<path class="st0" d="M337.5,1.3c-11.9-4.4-24.9,3.4-26.5,16l-6.2,48.3c-1.1,9,10.6,13.4,15.7,5.8l26.7-40.2
			C354.4,20.5,349.7,5.8,337.5,1.3z M334.7,22.9l-11.3,17l2.6-20.6c0.6-4.9,7.6-5.6,9.2-0.6C335.5,19.5,335.8,21.2,334.7,22.9z"/>
	</g>
</g>
<g>
	<g>
		<path class="st0" d="M403.3,44.9c-8.5-9.1-23.3-7.9-30.3,2.5l-27.3,41c-2.2,3.3-1.9,7.7,0.9,10.6c2.7,2.9,7.1,3.6,10.5,1.6
			l41.4-23.9C410,70.1,412.3,54.5,403.3,44.9z M391,63.6l-17.2,9.9l11.8-17.8c1.5-2.2,4.7-2.6,6.6-0.5C394.6,57.7,394,61.8,391,63.6
			z"/>
	</g>
</g>
<g>
	<g>
		<path class="st0" d="M419.4,105.9l-45.7,13.4c-3.8,1.1-6.4,4.7-6.2,8.7c0.2,4,3.1,7.3,7.1,8l48.6,8.6c5.9,1,11.7-0.6,16.1-4.5
			C454.9,126.3,440.4,99.7,419.4,105.9z M425.9,129.7l-21.2-3.8l18.9-5.5c2.2-0.7,3.9,0.2,4.8,0.8
			C432.9,124.3,430.4,130.4,425.9,129.7z"/>
	</g>
</g>
<g>
	<g>
		<path class="st1" d="M472.5,369.5l-10.9-14.7l3.1-46.4c1-15-2-30.1-8.6-43.6c-1.8-3.7-6.4-5.3-10.1-3.5c-3.7,1.8-5.3,6.4-3.5,10.1
			c5.4,11.1,7.9,23.5,7.1,35.9c-2.8,50.5-4.7,50.2-1.8,54.1l12.5,16.9c4.4,6,3.2,14.4-2.8,18.8l-48.8,36.1
			c-3.4,2.5-4.1,7.2-1.6,10.6c1.5,2,3.8,3.1,6.1,3.1c1.6,0,3.1-0.5,4.5-1.5l48.8-36.1C479.2,400,481.9,382.2,472.5,369.5z"/>
	</g>
</g>
<g>
	<g>
		<path class="st1" d="M435.2,234.7c-2.3-4-18.6-18.6-32.9-58.5c-7.3-19.4-17.6-31.6-37.9-24.1c-10.7,4-17.5,12.3-19.6,23.2
			L287,97.2c-15.6-21.2-48-16.4-56.8,7.7c-19.4-18.4-51.7-7.4-54.7,19.6c-27.5-8-50.5,20.9-37.8,45.8c-25.5,1.4-39.6,30.9-23.9,52
			l7.7,10.4c-25.3,1.8-38.8,31.1-23.4,52l19.3,26.1c2.5,3.4,7.2,4.1,10.6,1.6c3.4-2.5,4.1-7.2,1.6-10.6l-19.3-26.1
			c-9.1-12.3,0.2-29.3,15.2-27.9c4.5,0.4,8.5,2.5,11.5,5.8c0,0,0,0,0,0c1.6,3-5.2-6.6,120.4,163.3c13,17.5,30.8,30.1,51.7,36.4
			c7.5,2.2,14.2,7.1,19.1,13.6c4.3,5.8,6.8,10,12.9,13.6l-18.5,13.7c-2.9,2.2-6.5,3-10.1,2.5c-7.9-1.2-10.1-7.7-13.3-11.3
			c-6.8-9.1-16.3-15.9-26.9-19.1c-17.7-5.3-32.9-16-43.9-30.9c-1.7-2.3-69.7-94.3-77.7-105.2c-2.5-3.4-7.2-4.1-10.6-1.6
			c-3.4,2.5-4.1,7.2-1.6,10.6c17,23,61.1,82.7,77.7,105.2c13,17.5,30.8,30.1,51.7,36.4c15,4.5,20.8,16.7,23.4,19.5
			c9.4,12.8,27.4,15.5,40.1,6l30.6-22.6c9.3-2.1,12.8-7.2,27.4-17.3c3.4-2.5,4.1-7.2,1.6-10.6c-2.5-3.4-7.2-4.1-10.6-1.6
			c-16.2,11.4-17.4,14.2-23.2,15c-4.1,0.5-8-0.8-10.8-3.4c-4.3-3.9-11.7-20.6-33.1-27c-17.7-5.3-32.9-16-43.9-30.9
			C141,234.2,149.2,246.9,148.1,240.4c-3-18,20-27.8,30.8-13.1l54.8,74.2c1.5,2,3.8,3.1,6.1,3.1c6.1,0,9.8-7,6.1-12
			c-85.1-115.1-80.3-107.9-81.6-112.3c-1.1-3.7-1-7.8,0.4-11.5c2.5-6.5,9.2-11.3,17.1-10.8c3.3,0.2,6.3,1.3,9,3.2
			c3.9,2.9-0.3-1.4,82.9,110.8c1.5,2,3.8,3.1,6.1,3.1c6.1,0,9.8-7,6.1-12c-5.7-7.8,15.4,20.9-79.1-107
			c-14.2-19.2-13.2-17.8-13.9-18.9c-2.1-3.5-3-7.6-2.3-11.8c2.5-15.3,22.1-19.5,31.3-7c10.5,14.2,78.4,106.1,91.8,124.2
			c1.5,2,3.8,3.1,6.1,3.1c6.1,0,9.8-7,6.1-12c-8.1-11-70.7-95.6-79.1-107c-3-4.4-4-8.8-3.1-13.5c2.8-15,22-19.1,31.2-6.7l74.3,100.6
			c5,6.8,15.8,1.4,13.3-6.7c-1-3.3-1.2-4.2-1.5-5c-1.7-5.4-6-23.3,8.6-28.8c6.9-2.6,11.5-3.2,18.3,14.8c7.4,20,18.4,43.1,32.2,59
			c1.2,1.3,1.2,1.5,2.9,3.8c2.5,3.3,7.3,4,10.6,1.4C437.1,242.7,437.8,238,435.2,234.7z M135,225.5l-9-12.2
			c-5.5-7.5-4.5-17.9,2.3-23.8c7.3-6.3,18.1-5.3,24.2,1.6c1.8,3.3,3.3,4.9,10.1,14.2C150,206.1,139.4,214.4,135,225.5z M155.3,155
			c-1.9,2.4-3.4,4.9-4.5,7.6c-1.4-3.1-1.9-6.5-1.3-10c2.2-13.7,18.5-18.9,28.8-9.8C177.4,142.9,161.5,147.2,155.3,155z"/>
	</g>
</g>
</svg>
