<?xml version="1.0" encoding="utf-8"?>
<!-- Generator: Adobe Illustrator 24.1.0, SVG Export Plug-In . SVG Version: 6.00 Build 0)  -->
<svg version="1.1" id="Layer_1" xmlns="http://www.w3.org/2000/svg" xmlns:xlink="http://www.w3.org/1999/xlink" x="0px" y="0px"
	 viewBox="0 0 512 512" style="enable-background:new 0 0 512 512;" xml:space="preserve">
<style type="text/css">
	.st0{fill:#E2E8F0;}
	.st1{fill:#A4C2F7;}
	.st2{fill:#CBD5E0;}
	.st3{fill:#FFFFFF;}
	.st4{fill:#A0AEC0;}
	.st5{fill:#C25959;}
</style>
<g id="_x30_02---Give-Women_x27_s-Rights">
	<g id="Icons_copy" transform="translate(1 1)">
		<g>
			<path id="Shape" class="st0" d="M162.2,281.8l-44.4,41.9c-12.8,12.1-32.6,12.7-46.2,1.5C58,313.9,55,294.3,64.5,279.5
				c1.5-2.4,3.3-4.6,5.5-6.6l44.4-41.9c9-8.7,22.1-11.8,34.1-8.3s21.2,13.3,24.1,25.5C175.3,260.5,171.4,273.3,162.2,281.8
				L162.2,281.8z"/>
			<path id="Shape_1_" class="st0" d="M210,332.5l-44.4,41.9c-9.1,8.6-22,11.6-33.9,8.1c-11.9-3.6-21.1-13.2-23.9-25.3
				c-2.9-12.1,0.9-24.8,10-33.4l44.4-41.9c14-13.2,36.1-12.6,49.3,1.4S224,319.3,210,332.5L210,332.5z"/>
			<path id="Shape_2_" class="st0" d="M257.9,383.3l-44.4,41.9c-9,8.7-22.1,11.8-34.1,8.3c-12-3.6-21.2-13.3-24.1-25.5
				c-2.9-12.2,1.1-25,10.3-33.5l44.4-41.9c14-13,36-12.3,49.1,1.7C272.3,348.1,271.7,370,257.9,383.3L257.9,383.3z"/>
			<path id="Shape_3_" class="st0" d="M315.3,418.3c-1.7,6-5,11.4-9.6,15.7l-44.4,41.9c-9,8.7-22.1,11.8-34.1,8.3
				c-12-3.6-21.2-13.3-24.1-25.5c-2.9-12.2,1.1-25,10.3-33.5l44.4-41.9c11.4-10.8,28.7-12.6,42.1-4.4
				C313.4,387.1,319.7,403.2,315.3,418.3z"/>
		</g>
		<path id="Shape_4_" class="st1" d="M363.2,367.8L249.5,247.3"/>
		<path id="Shape_5_" class="st1" d="M363.2,367.8L249.5,247.3"/>
		<path id="Shape_6_" class="st1" d="M413.9,319.9L300.2,199.4"/>
		<path id="Shape_7_" class="st1" d="M413.9,319.9L300.2,199.4"/>
		<path id="Shape_8_" class="st0" d="M502.4,168.3c-1.1,37-16.8,72-43.7,97.4L326.8,125.9c-3.1-3.3-7.4-5.2-11.9-5.3
			c-4.5-0.1-8.9,1.6-12.2,4.7l-63.7,60.1c-8.4,7.9-19.6,12.2-31.1,11.9c-11.5-0.3-22.5-5.3-30.4-13.7c-4.8-5-7.4-11.7-7.2-18.7
			c0.2-6.9,3.2-13.5,8.2-18.3l76.1-71.9l12.7-12C308.3,24,368.6,13.8,420.1,36.9S504,111.9,502.4,168.3L502.4,168.3z"/>
		<path id="Shape_9_" class="st2" d="M464.4,68.5c-29.5-31.3-71.7-47.2-114.5-43.1c51.3,4.6,95.9,37.1,115.9,84.5
			s12.3,102.1-20.2,142l13,13.8C514.7,212.8,517.3,124.5,464.4,68.5L464.4,68.5z"/>
		<path id="Shape_10_" class="st2" d="M301.2,125.9c-3.1-3.3-7.4-5.2-11.9-5.3c-4.5-0.1-8.9,1.6-12.2,4.7l-63.7,60.1
			c-4.8,4.5-10.6,7.9-17,9.8c14.9,4.7,31.2,0.9,42.6-9.8l62.6-59L301.2,125.9z"/>
		<path id="Shape_11_" class="st0" d="M474.1,297c-0.4,14.1-9.3,26.5-22.5,31.6s-28.1,1.6-37.8-8.6c13.2,14,12.6,36.1-1.4,49.3
			c-14,13.2-36.1,12.6-49.3-1.4c9.7,10.3,12.2,25.3,6.5,38.2c-5.8,12.9-18.7,21-32.8,20.6c-7.9-0.2-15.5-3.1-21.5-8.3
			c4.4-15.1-1.9-31.3-15.3-39.5c-13.4-8.2-30.7-6.4-42.1,4.4c13.8-13.3,14.4-35.2,1.2-49.1c-13.1-13.9-35.1-14.7-49.1-1.7
			c14-13.2,14.6-35.3,1.4-49.3c-13.2-14-35.3-14.6-49.3-1.4c9.2-8.5,13.1-21.3,10.3-33.5c-2.9-12.2-12-22-24.1-25.5
			s-25-0.4-34.1,8.3l-44.4,41.9c-2.1,1.9-4,4.1-5.5,6.6l-0.9-0.6l-17.9-19c-52.9-56-50.3-144.3,5.7-197.2s144.3-50.3,197.2,5.7
			l6,6.3l-76.1,71.9c-5,4.8-7.9,11.3-8.2,18.3c-0.2,6.9,2.4,13.7,7.2,18.7c7.9,8.4,18.8,13.3,30.4,13.7c11.5,0.3,22.7-3.9,31.1-11.9
			l63.7-60.1c3.3-3.1,7.7-4.8,12.2-4.7c4.5,0.1,8.8,2.1,11.9,5.3l131.9,139.8l6,6.3C471,278.7,474.4,287.7,474.1,297L474.1,297z"/>
		<path id="Shape_12_" class="st2" d="M388.3,319.9c8,8.4,11.2,20.2,8.7,31.4s-10.5,20.6-21.2,24.8c13.1,5.2,28,2,37.8-8.1
			s12.5-25.1,6.9-38C408.7,332.5,396.5,328.6,388.3,319.9L388.3,319.9z"/>
		<path id="Shape_13_" class="st2" d="M464.7,272l-6-6.3L326.8,125.9c-3.1-3.3-7.4-5.2-11.9-5.3c-4.5-0.1-8.9,1.6-12.2,4.7l-1.1,1
			l131.6,139.4l6,6.3c6.3,6.8,9.7,15.7,9.5,25c-0.4,13.9-9.1,26.3-22,31.4c15.2,6,32.5,0.6,41.6-12.9
			C477.3,301.9,475.8,283.9,464.7,272L464.7,272z"/>
		<path id="Shape_14_" class="st2" d="M337.6,367.8c8,8.4,11.2,20.2,8.7,31.5c-2.5,11.3-10.5,20.6-21.3,24.8
			c3.8,1.5,7.8,2.4,11.8,2.5c11.9,0.4,23.2-5.4,29.8-15.3c6.7-9.9,7.8-22.5,3.1-33.4C358,380.3,345.8,376.5,337.6,367.8L337.6,367.8
			z"/>
	</g>
	<path id="Shape_15_" class="st3" d="M97.9,320.9C89,311.8,79.4,296.3,81,283c0.2-1.3,3.5-13.1,4.9-12.4l-1-0.6
		c-12-12.8-18.8-20-17.9-19C-14.9,164.4,56.2,36,160.5,26.2C42.7,15.7-47.1,157.5,41.3,251c4.5,4.7,13.5,14.3,17.9,19l1,0.6
		c-3.6,5.6-5.6,12.1-5.6,18.8c0,6.6,9.9,20.7,13.7,26.4c9,14.1,26.7,19.7,42.2,13.6C108.5,330.1,100.2,323.3,97.9,320.9L97.9,320.9z
		"/>
	<g id="Layer_11" transform="translate(0 -1)">
		<path id="Shape_16_" class="st3" d="M23.9,124.3l-16.2-5.4c7.9-22.9,21.2-43.7,38.7-60.4l11.7,12.4C42.7,85.7,30.9,104,23.9,124.3
			z"/>
		<g>
			<path id="Shape_17_" class="st4" d="M30.7,99.3c-4.7,0-8.5-3.8-8.5-8.5s3.8-8.5,8.5-8.5s8.5,3.8,8.5,8.5
				C39.3,95.5,35.4,99.3,30.7,99.3z"/>
			<path id="Shape_18_" class="st5" d="M471.6,64.6C444.7,36,407.5,19.3,368.2,18.1c-39.3-1.1-77.4,13.4-105.9,40.4l-6.5,6.1
				C228.9,36,191.7,19.2,152.4,18.1c-39.3-1.2-77.4,13.4-106,40.4c-3.4,3.2-3.6,8.6-0.3,12.1c3.2,3.4,8.6,3.6,12.1,0.3
				c25.3-23.9,59-36.7,93.8-35.7s67.7,15.8,91.5,41.2l-69.9,66c-6.7,6.3-10.6,15-10.9,24.2c-0.3,9.2,3.2,18.1,9.5,24.8
				c9.5,10.1,22.6,16,36.4,16.4c13.8,0.4,27.2-4.7,37.3-14.2l63.7-60.1c1.6-1.6,3.8-2.4,6.1-2.3c2.3,0.1,4.4,1,6,2.7
				c174.2,184.6,121.8,129.6,132,139.9c6.6,7,13.4,12.7,13.1,25c-0.3,10.7-7,20.1-16.9,23.9c-10,3.8-21.2,1.2-28.6-6.5L307.4,195.6
				c-3.2-3.4-8.6-3.6-12.1-0.3c-3.4,3.2-3.6,8.6-0.3,12.1l113.7,120.5c6.5,6.8,8.8,16.6,6.1,25.6c-2.7,9-10,15.9-19.2,18.1
				c-9.2,2.2-18.8-0.7-25.2-7.5L256.7,243.4c-2.1-2.2-5.2-3.2-8.2-2.4c-3,0.7-5.3,2.9-6.2,5.9c-0.9,2.9-0.1,6.1,2,8.3L358,375.6
				c9,9.5,9.6,24.2,1.5,34.4c-8.1,10.2-22.5,13-33.8,6.4c2-13.3-2.4-26.8-11.9-36.4s-22.9-14.2-36.2-12.4c2.6-13.6-1.5-27.6-11-37.6
				c-9.5-10.1-23.2-14.9-36.9-13.1c2.6-13.6-1.5-27.6-11-37.6c-9.5-10-23.2-14.9-36.9-13.1c3.4-18.4-5.5-36.9-21.9-45.9
				c-16.5-9-36.8-6.3-50.4,6.5c-61,57.6-40,37.7-44.5,42L52.8,256c-33.1-35.2-44.2-85.9-28.9-131.7c1.1-2.9,0.5-6.2-1.6-8.5
				s-5.2-3.4-8.2-2.8c-3,0.6-5.5,2.9-6.4,5.9c-17.4,51.8-4.9,109.1,32.6,148.9L55,283.2c-6.2,14.3-4.2,30.7,5.2,43.1
				s24.6,18.8,40,16.9c-2.6,13.6,1.5,27.6,11,37.6c9.5,10.1,23.2,14.9,36.9,13.1c-2.6,13.6,1.5,27.6,11,37.6
				c9.5,10.1,23.2,14.9,36.9,13.1c-3.4,18.4,5.4,37,21.9,45.9s36.8,6.3,50.5-6.5c48-45.2,47.1-43.6,51.8-51.4
				c14.2,7,31.2,5.6,44.1-3.6c12.9-9.2,19.7-24.8,17.7-40.6c13.6,2.5,27.5-1.6,37.6-11c10-9.5,14.9-23.2,13.1-36.9
				c18.5,3.4,37.1-5.6,46-22.2s6-37.1-7.1-50.6C525.5,210.8,525.6,121.6,471.6,64.6L471.6,64.6z M75.7,318.4
				c-10-10.6-9.5-27.3,1.1-37.3l44.4-41.9c10.6-9.8,27.1-9.2,37,1.3c9.9,10.5,9.5,27-0.9,37.1l-44.4,41.9
				C102.3,329.5,85.6,329,75.7,318.4z M123.5,369.2c-10-10.6-9.5-27.3,1.1-37.3L169,290c10.6-10,27.3-9.5,37.2,1.1
				c10,10.6,9.5,27.3-1.1,37.2l-44.4,41.9C150.2,380.2,133.5,379.7,123.5,369.2L123.5,369.2z M171.4,419.9
				c-10-10.6-9.5-27.3,1.1-37.2l44.4-41.9c10.7-9.4,26.8-8.6,36.5,1.7s9.6,26.5-0.4,36.6l-44.4,41.9
				C198.1,430.9,181.4,430.4,171.4,419.9L171.4,419.9z M256.5,471.7c-6.8,6.5-16.6,8.8-25.6,6.1s-15.9-10-18.1-19.2
				c-2.2-9.2,0.7-18.8,7.6-25.2l44.4-41.9c10.6-9.8,27.1-9.2,37,1.3c9.9,10.5,9.5,27-0.9,37.1L256.5,471.7z M459.8,255.4L333.9,122
				c-4.7-4.9-11.1-7.8-17.9-8s-13.4,2.3-18.3,7L234,181.1c-6.8,6.4-15.8,9.8-25.1,9.5c-9.3-0.3-18.1-4.3-24.5-11.1
				c-3.2-3.4-4.9-7.9-4.8-12.6c0.1-4.7,2.1-9.1,5.5-12.3c22.2-20.9-51.5,48.6,88.7-83.8c51.4-48.7,132.2-47.8,182.4,2.1
				S508.2,203.7,459.8,255.4L459.8,255.4z"/>
		</g>
	</g>
</g>
</svg>
