<?xml version="1.0" encoding="utf-8"?>
<!-- Generator: Adobe Illustrator 24.1.0, SVG Export Plug-In . SVG Version: 6.00 Build 0)  -->
<svg version="1.1" id="Layer_1" xmlns="http://www.w3.org/2000/svg" xmlns:xlink="http://www.w3.org/1999/xlink" x="0px" y="0px"
	 viewBox="0 0 512 512" style="enable-background:new 0 0 512 512;" xml:space="preserve">
<style type="text/css">
	.st0{fill:#D4E1F4;}
	.st1{fill:#CBD5E0;}
	.st2{fill:#A0AEC0;}
	.st3{fill:#FFFFFF;}
	.st4{fill:#C25959;}
</style>
<path class="st0" d="M418.1,8.5H230.4v62.6c0,2.2,0.8,4.2,2.3,5.8c2.4,2.5,6.1,3.3,9.4,2.1c0.4-0.2,0.8-0.3,1.2-0.3
	c4.1-1.3,8.4-2,12.7-2c22.6,0.1,41.2,17.9,42.4,40.4c1.2,22.6-15.5,42.2-37.9,44.6c-5.8,0.7-11.7,0.1-17.3-1.8c-0.3,0-0.7-0.1-1-0.3
	c-3.3-1.2-6.9-0.3-9.4,2.1c-1.5,1.6-2.3,3.6-2.3,5.8v62.6h67c3-0.1,5.8-1.7,7.2-4.4c1.4-2.7,1.4-5.9-0.2-8.5
	c-3.8-6.4-5.8-13.8-5.7-21.2c0-18.6,12-35.1,29.8-40.7c7.3-2.2,15-2.6,22.4-0.9c12.3,2.7,22.7,10.8,28.4,22
	c6.2,12.2,6.3,26.5,0.2,38.7l43.1,13.7l4.1,1.3h17.1c4.7,0,8.5-3.8,8.5-8.5V42.7C452.3,23.8,437,8.5,418.1,8.5z"/>
<path class="st1" d="M293.3,353.5c-7.5,13.6-21.8,21.9-37.3,21.9c-4.7,0-9.4-0.8-13.9-2.3c-2.6-1-5.6-0.7-7.9,0.9
	c-2.3,1.6-3.7,4.2-3.8,7v54.1c0,4.7-3.8,8.5-8.5,8.5H42.7c-18.9,0-34.1-15.3-34.1-34.1V230.4h67c3-0.1,5.8-1.7,7.2-4.4
	s1.4-5.9-0.2-8.5c-3.8-6.4-5.8-13.8-5.7-21.2c0-18,11.2-34,28.2-40.2c16.9-6.1,35.8-1,47.3,12.9c11.5,13.8,13.1,33.4,4,48.9
	c-1.4,2.7-1.3,5.9,0.2,8.4c1.6,2.6,4.4,4.1,7.4,4.1h66.6v54.1c0,2.8,1.4,5.4,3.8,7c2.3,1.6,5.3,1.9,7.9,0.9
	c4.5-1.6,9.2-2.3,13.9-2.3c9.2,0,18.2,3,25.6,8.5"/>
<path class="st1" d="M298.3,124.9c-1.6,12.7-8.9,24.1-19.8,30.9c-10.9,6.8-24.3,8.3-36.4,4.1c-2.6-1-5.6-0.7-7.9,0.9
	c-2.3,1.6-3.7,4.2-3.8,7v62.6h-66.6c-3,0-5.8-1.5-7.3-4.1c-1.6-2.6-1.6-5.8-0.2-8.4c10.5-17.9,6.7-40.7-9.2-54.2
	c-15.8-13.4-39-13.5-54.9-0.2c-15.9,13.3-20,36.1-9.6,54.1c1.6,2.6,1.7,5.8,0.3,8.5c-1.5,2.7-4.2,4.3-7.3,4.4h-67V42.7
	c0-18.9,15.3-34.1,34.1-34.1h187.7v62.6c0,2.8,1.5,5.4,3.8,7c2.3,1.6,5.3,1.9,7.9,0.9c14-4.8,29.4-2,40.8,7.3
	C294.3,95.7,300.2,110.3,298.3,124.9z"/>
<path class="st0" d="M242.1,159.8c0.3,0.1,0.7,0.2,1,0.3c-2.7,0.9-5.5,1.5-8.3,1.8c-0.7,0.1-1.4,0.1-2.1,0.1
	C235.1,159.5,238.8,158.6,242.1,159.8z"/>
<path class="st0" d="M232.7,77c3.6,0.1,7.2,0.7,10.6,1.8c-0.4,0.1-0.8,0.2-1.2,0.3C238.8,80.3,235.1,79.5,232.7,77z"/>
<path class="st2" d="M452.3,42.7v179.2c0,4.7-3.8,8.5-8.5,8.5h-17.1l-4.1-1.3c2.6-1.5,4.1-4.3,4.1-7.3V42.7
	c0-18.9-15.3-34.1-34.1-34.1h25.6C437,8.5,452.3,23.8,452.3,42.7z"/>
<path class="st1" d="M426.7,42.7v179.2c0,3-1.5,5.7-4.1,7.3l-43.1-13.7c6.1-12.2,6-26.6-0.2-38.7c-5.7-11.2-16.1-19.3-28.4-22
	c-7.4-1.6-15.2-1.3-22.4,0.9c-17.7,5.6-29.8,22.1-29.8,40.7c0,7.5,1.9,14.8,5.7,21.2c1.6,2.6,1.7,5.8,0.2,8.5
	c-1.4,2.7-4.2,4.3-7.2,4.4h-67v-62.6c0-2.2,0.8-4.2,2.3-5.8c0.7,0.1,1.4,0,2.1-0.1c2.8-0.3,5.6-0.9,8.3-1.8
	c5.6,1.8,11.5,2.5,17.3,1.8c22.5-2.5,39.1-22.1,37.9-44.6c-1.2-22.6-19.8-40.3-42.4-40.4c-4.3-0.1-8.6,0.6-12.7,2
	c-3.4-1.1-7-1.7-10.6-1.8c-1.5-1.6-2.3-3.6-2.3-5.8V8.5h162.1C411.4,8.5,426.7,23.8,426.7,42.7z"/>
<path class="st2" d="M503.5,298.7v170.7c0,18.9-15.3,34.1-34.1,34.1H290.1c-4.7,0-8.5-3.8-8.5-8.5v-54.1c0-2.2,0.8-4.2,2.3-5.8
	c2.4-2.5,6.1-3.3,9.4-2.1c0.4,0.2,0.8,0.3,1.2,0.3c4.1,1.3,8.4,2,12.7,2c15.5-0.3,29.6-8.9,36.9-22.5c7.3-13.6,6.7-30.2-1.7-43.2
	c-8.3-13-23.1-20.5-38.5-19.6c-2.7,0.6-5.4,1.5-7.9,2.6c-0.9,0.3-1.8,0.7-2.6,1c-3.9,1.6-8.4,0-10.5-3.6c-0.8-1.3-1.2-2.8-1.2-4.4
	v-46.9c0-4.7,3.8-8.5,8.5-8.5h58.5c3-0.1,5.8-1.7,7.2-4.4s1.4-5.9-0.2-8.5c-3.8-6.4-5.8-13.8-5.7-21.2c0-18.5,12-34.9,29.6-40.6
	c0.1,0,0.1,0,0.2-0.1c17.3-5.4,36.1,0.6,47,15.1c5.6,7.4,8.6,16.4,8.5,25.6c0,7.5-1.9,14.8-5.7,21.2c-1.6,2.6-1.7,5.8-0.2,8.5
	s4.2,4.3,7.2,4.4h58.5C499.6,290.1,503.5,294,503.5,298.7z"/>
<path class="st1" d="M477.9,298.7v170.7c0,18.9-15.3,34.1-34.1,34.1H290.1c-4.7,0-8.5-3.8-8.5-8.5v-54.1c0-2.2,0.8-4.2,2.3-5.8
	c3.6-0.1,7.2-0.7,10.6-1.8c4.1,1.3,8.4,2,12.7,2c15.5-0.3,29.6-8.9,36.9-22.5c7.3-13.6,6.7-30.2-1.7-43.2
	c-8.3-13-23.1-20.5-38.5-19.6c-2.7,0.6-5.4,1.5-7.9,2.6c-4.2-1.6-8.6-2.5-13.1-2.6c-0.8-1.3-1.2-2.8-1.2-4.4v-46.9
	c0-4.7,3.8-8.5,8.5-8.5h58.5c3-0.1,5.8-1.7,7.2-4.4s1.4-5.9-0.2-8.5c-3.8-6.4-5.8-13.8-5.7-21.2c0-18.5,12-34.9,29.6-40.6
	c0.1,0,0.1,0,0.2-0.1c17.8,5.5,30,22,30,40.7c0,7.5-1.9,14.8-5.7,21.2c-1.6,2.6-1.7,5.8-0.2,8.5c1.4,2.7,4.2,4.3,7.2,4.4h58.5
	C474,290.1,477.9,294,477.9,298.7z"/>
<path class="st3" d="M42.7,443.7h25.6c-18.9,0-34.1-15.3-34.1-34.1V42.7c0-18.9,15.3-34.1,34.1-34.1H42.7
	C23.8,8.5,8.5,23.8,8.5,42.7v366.9C8.5,428.5,23.8,443.7,42.7,443.7z"/>
<path class="st3" d="M17.1,230.4v179.2H0V230.4H17.1z"/>
<g>
	<path class="st2" d="M8.5,307.2c2.3,0,4.4-0.9,6.1-2.5c3.3-3.4,3.3-8.8,0-12.1l-1.3-1c-0.5-0.3-1-0.6-1.5-0.8
		c-0.5-0.2-1-0.4-1.5-0.5c-0.6-0.1-1.1-0.2-1.7-0.2c-2.3,0-4.4,0.9-6.1,2.5c-0.8,0.8-1.4,1.8-1.8,2.8c-1.3,3.2-0.6,6.8,1.8,9.3
		c0.8,0.8,1.8,1.4,2.8,1.8C6.3,307,7.4,307.2,8.5,307.2z"/>
	<path class="st4" d="M494.9,281.6l-58-0.1c7.5-12.9,8.9-28.5,3.9-42.6h3c9.4,0,17.1-7.6,17.1-17.1V42.7c0-23.6-19.1-42.6-42.7-42.7
		H42.7C19.1,0,0,19.1,0,42.7v221.9c0,4.7,3.8,8.5,8.5,8.5c4.7,0,8.5-3.8,8.5-8.5v-25.6h58.5c1.5,0,2.9-0.2,4.4-0.6
		c4.3-1.1,7.9-3.9,10.1-7.8c2.4-4.2,2.9-9.2,1.4-13.8c-0.4-1.3-0.9-2.5-1.5-3.6c-0.7-1.3-1.4-2.6-2-3.9c-4.8-11.7-2.8-25.1,5.3-34.8
		c8.1-9.7,20.8-14.2,33.2-11.6c1.6,0.3,3.2,0.8,4.8,1.3c9.3,3.4,16.7,10.6,20.2,19.9c3.5,9.2,2.8,19.6-1.9,28.2
		c-0.2,0.4-0.4,0.9-0.6,1.3c-0.7,1.2-1.2,2.5-1.6,3.8c0,0.1-0.1,0.2-0.1,0.2c-0.1,0.2,0,0.5-0.1,0.8c-0.9,4-0.3,8.3,1.8,11.9
		c0.2,0.3,0.5,0.6,0.7,0.9c3.2,4.9,8.5,7.8,14.3,7.9h58v45.6c0,5.5,2.6,10.6,7.1,13.8c4.7,3.3,10.6,4.1,16,2.2
		c9.4-3.1,19.6-2.1,28.2,2.8v42.4c0,4.8,2.1,9.3,5.7,12.5c-6.2,5.6-14.4,8.8-22.8,8.8c-3.8,0-7.5-0.6-11.1-1.8
		c-5.4-1.9-11.3-1-15.9,2.2c-4.5,3.1-7.1,8.3-7.1,13.8v54.1H42.7c-14.1,0-25.6-11.5-25.6-25.6v-76.8c0-4.7-3.8-8.5-8.5-8.5
		c-4.7,0-8.5,3.8-8.5,8.5v76.8c0,23.6,19.1,42.6,42.7,42.7h179.2c9.4,0,17.1-7.6,17.1-17.1l0.3-54c5.4,1.9,11,2.8,16.7,2.8
		c17.4,0,33.5-8.9,42.9-23.5c4.3-1.6,5.8-2,5.6-2c17.1-1.1,32.5,10.4,36.2,27.1c2.1,10.1-0.5,20.6-7.1,28.6
		c-9.2,10.8-24,15-37.4,10.6c-5.4-1.9-11.3-1-16,2.3c-4.5,3.1-7.1,8.3-7.1,13.7v54.1c0,9.4,7.6,17.1,17.1,17.1h179.2
		c23.6,0,42.6-19.1,42.7-42.7V298.7C512,289.2,504.4,281.6,494.9,281.6z M443.7,42.7v179.2h-13c-9.8-11.1-24.1-17.3-38.9-17.1
		c1.8-10.9,0.1-22.1-4.9-32c-6.9-13.5-19.4-23.2-34.3-26.5c-15.2-3.4-31.1,0.2-43.3,10s-19.3,24.4-19.3,40c0,9,2.5,17.9,7.2,25.6
		H239l0.3-54c25,8.6,52.5-3.3,63.3-27.5c2.2-4.6,3.6-9.5,4.3-14.5c2.3-17.6-4.8-35.2-18.7-46.4c-13.8-11.2-32.5-14.3-49.3-8.4V17.1
		h179.2C432.3,17.1,443.7,28.5,443.7,42.7z M17.1,221.9V42.7c0-14.1,11.5-25.6,25.6-25.6h179.2v54.1c0,5.5,2.6,10.6,7,13.7
		c4.6,3.3,10.6,4.1,16,2.3c13.1-4.3,27.5-0.5,36.7,9.7c4.9,5.5,7.8,12.3,8.4,19.6c0.2,2.5,0.2,4.9-0.1,7.4
		c-2.2,15.6-14.6,27.8-30.2,29.6c-5,0.5-10-0.1-14.8-1.7c-5.4-1.9-11.3-1-15.9,2.2c-4.5,3.1-7.1,8.3-7.1,13.7v54.2l-58.3,0.3
		c0.4-0.8,0.7-1.6,1.1-2.4c7-13.2,7.8-28.8,2.3-42.7c-5.6-13.9-17-24.6-31.2-29.3c-2.1-0.7-4.1-1.3-6.3-1.7
		c-1.9-0.4-3.8-0.6-5.7-0.8h-0.1c-1.4-0.1-2.8-0.2-4.3-0.2c-0.3,0-0.5,0.1-0.8,0.1c-2.4,0-4.8,0.2-7.1,0.6c-0.8,0.1-1.5,0.3-2.3,0.4
		c-2,0.4-4,0.9-5.9,1.5c-0.5,0.2-1.1,0.3-1.6,0.5c-2.3,0.9-4.6,1.9-6.8,3.1c-0.6,0.3-1.2,0.7-1.8,1c-2.2,1.3-4.3,2.7-6.3,4.3
		l-0.1,0.1c-1.5,1.2-2.9,2.5-4.2,3.9c-9.3,9.5-14.4,22.3-14.4,35.6c0,8.1,2,16,5.9,23c0.5,0.9,0.9,1.7,1.3,2.6H17.1z M238.9,284.5
		v-45.6h58.4c6,0.1,11.5-3.1,14.5-8.3c3-5.4,3-12-0.1-17.3c-6.8-11.8-6-26.5,2.1-37.4c8.1-10.9,21.9-16,35.2-12.9
		c9.8,2.1,18.1,8.5,22.6,17.5c4.4,8.9,4.8,19.3,1.1,28.5c-19.1,7.9-31.5,26.5-31.5,47.1c0,9,2.5,17.9,7.2,25.6h-58.4
		c-4.6,0-8.9,1.8-12.1,5.1C265.8,280.8,251.7,280,238.9,284.5z M494.9,469.3c0,14.1-11.5,25.6-25.6,25.6H290.1l0.4-54
		c19.7,6.7,41.5,0.9,55.1-14.7c13.7-15.7,16.5-38,7.2-56.6c-9.3-18.6-28.9-29.7-49.7-28.1c-4.6,0.7-9,2.1-13.1,4.1v-46.9h58.4
		c6,0.1,11.5-3.1,14.5-8.3c3-5.4,3-12-0.1-17.3c-5.1-8.9-6-19.7-2.2-29.3c3.7-9.6,11.6-17,21.4-20.2h0.1c3.3-1.1,6.8-1.7,10.4-1.7
		c10.7,0,20.8,5.1,27.3,13.7c4.5,5.9,6.9,13.1,6.8,20.5c0,6-1.6,11.8-4.6,17c-3.1,5.4-3.1,12-0.1,17.3c3,5.2,8.5,8.4,14.5,8.3h58.4
		V469.3z"/>
	<path class="st2" d="M51.2,401.1V264.5c0-4.7-3.8-8.5-8.5-8.5c-4.7,0-8.5,3.8-8.5,8.5v136.5c0,4.7,3.8,8.5,8.5,8.5
		C47.4,409.6,51.2,405.8,51.2,401.1z"/>
	<path class="st2" d="M42.7,42.7c-4.7,0-8.5,3.8-8.5,8.5v119.5c0,4.7,3.8,8.5,8.5,8.5c4.7,0,8.5-3.8,8.5-8.5V51.2
		C51.2,46.5,47.4,42.7,42.7,42.7z"/>
</g>
</svg>
