<svg height="512" viewBox="0 0 60 60" width="512" xmlns="http://www.w3.org/2000/svg"><g id="Page-1" fill="none" fill-rule="evenodd"><g id="045---Wand" fill-rule="nonzero"><path id="Shape" d="m51.38 17.11-6.37 6.36-8.48-8.48 6.36-6.37c1.1712702-1.16981351 3.0687298-1.16981351 4.24 0l4.25 4.25c1.1698135 1.1712702 1.1698135 3.0687298 0 4.24z" fill="#fff"/><path id="Shape" d="m51.38 12.87-4.25-4.25c-.9619614-.95757323-2.4479988-1.14763823-3.62-.463.2259048.12674089.4343269.28238517.62.463l4.25 4.25c1.1698135 1.1712702 1.1698135 3.0687298 0 4.24l-4.869 4.861 1.5 1.5 6.37-6.36c1.1702033-1.1716609 1.1697558-3.069891-.001-4.241z" fill="#e8edfc"/><path id="Rectangle-path" d="m37.355 14.649h4.002v11.993h-4.002z" fill="#e8edfc" transform="matrix(.707 -.707 .707 .707 -3.071 33.876)"/><path id="Shape" d="m42.18 26.3-31.82 31.82c-1.17127019 1.1698135-3.06872981 1.1698135-4.24 0l-4.24-4.24c-1.16981351-1.1712702-1.16981351-3.0687298 0-4.24l31.82-31.82z" fill="#cbd5e0"/><path id="Shape" d="m33.7 17.82-1.5 1.5 6.98 6.98-31.82 31.82c-.18567309.1806148-.39409524.3362591-.62.463 1.17200119.6846382 2.65803856.4945732 3.62-.463l31.82-31.82z" fill="#a0aec0"/><path id="Rectangle-path" d="m.708 45.808h8v2h-8z" fill="#fff" transform="matrix(.707 -.707 .707 .707 -31.719 17.038)"/><g fill="#c25959"><path id="Shape" d="m5.727 46.808c0-.5522847-.44771525-1-1-1h-.01c-.55094938.0055098-.99364192.4556353-.98997789 1.0066001.00366403.5509647.45230402.9951627 1.00327794.9933445.55097393-.0018183.9966724-.4489677.99669995-.9999446z"/><path id="Shape" d="m2.586 48.929c-.39049985-.3903819-1.02350015-.3903819-1.414 0-.75019009.7501514-1.17164575 1.7675983-1.17164575 2.8285s.42145566 2.0783486 1.17164575 2.8285l4.242 4.242c.75015144.7501901 1.76759833 1.1716458 2.8285 1.1716458s2.0783486-.4214557 2.8285-1.1716458l31.819-31.819 9.192-9.192c.7501901-.7501514 1.1716458-1.7675983 1.1716458-2.8285s-.4214557-2.0783486-1.1716458-2.8285l-4.241-4.243c-1.5836906-1.50920671-4.0733094-1.50920671-5.657 0l-35.356 35.355c-.39046532.3907415-.39024146 1.0240347.0005 1.4145s1.02403468.3902415 1.4145-.0005l25.457-25.455 7.069 7.069-31.112 31.114c-.79150327.7559402-2.03749673.7559402-2.829 0l-4.242-4.242c-.37524801-.375096-.58607293-.8839266-.58607293-1.4145s.21082492-1.039404.58607293-1.4145c.39038194-.3904999.39038194-1.0235001 0-1.414zm32.526-31.113 1.415-1.416.707.707c.395671.3438487.9897121.3237983 1.3612973-.0459475.3715853-.3697457.3945836-.9636799.0527027-1.3610525l-.707-.707 5.659-5.661c.7915033-.75594024 2.0374967-.75594024 2.829 0l4.242 4.242c.375248.375096.5860729.8839266.5860729 1.4145s-.2108249 1.039404-.5860729 1.4145l-5.657 5.657-3.535-3.536c-.3907415-.3907415-1.0242585-.3907415-1.415 0s-.3907415 1.0242585 0 1.415l3.536 3.534-1.414 1.415z"/><path id="Shape" d="m33.7 24.888.707-.708c.2525868-.2527654.3511379-.6210837.25853-.966213s-.3623054-.6146361-.7075-.707c-.3451947-.0923638-.7134432.0064476-.96603.259213l-.707.708c-.3904653.3907415-.3902414 1.0240347.0005 1.4145.3907415.3904653 1.0240347.3902414 1.4145-.0005z"/><path id="Shape" d="m18.142 40.443 12.728-12.727c.3910176-.3904653.3914653-1.0239824.001-1.415-.3904653-.3910175-1.0239824-.3914653-1.415-.001l-12.728 12.729c-.2599566.2510745-.3642126.6228779-.2726972.9725073.0915155.3496295.3645604.6226744.7141899.7141899.3496294.0915154.7214328-.0127406.9725073-.2726972z"/><path id="Shape" d="m32 1c0-.55228475-.4477153-1-1-1s-1 .44771525-1 1v2c0 .55228475.4477153 1 1 1s1-.44771525 1-1z"/><path id="Shape" d="m31 8c-.5522847 0-1 .44771525-1 1v2c0 .5522847.4477153 1 1 1s1-.4477153 1-1v-2c0-.55228475-.4477153-1-1-1z"/><path id="Shape" d="m26 5c-.5522847 0-1 .44771525-1 1s.4477153 1 1 1h2c.5522847 0 1-.44771525 1-1s-.4477153-1-1-1z"/><path id="Shape" d="m34 5c-.5522847 0-1 .44771525-1 1s.4477153 1 1 1h2c.5522847 0 1-.44771525 1-1s-.4477153-1-1-1z"/><path id="Shape" d="m53 27v2c0 .5522847.4477153 1 1 1s1-.4477153 1-1v-2c0-.5522847-.4477153-1-1-1s-1 .4477153-1 1z"/><path id="Shape" d="m54 34c-.5522847 0-1 .4477153-1 1v2c0 .5522847.4477153 1 1 1s1-.4477153 1-1v-2c0-.5522847-.4477153-1-1-1z"/><path id="Shape" d="m51 33c.5522847 0 1-.4477153 1-1s-.4477153-1-1-1h-2c-.5522847 0-1 .4477153-1 1s.4477153 1 1 1z"/><path id="Shape" d="m59 31h-2c-.5522847 0-1 .4477153-1 1s.4477153 1 1 1h2c.5522847 0 1-.4477153 1-1s-.4477153-1-1-1z"/><path id="Shape" d="m55 3c.5522847 0 1-.44771525 1-1v-1c0-.55228475-.4477153-1-1-1s-1 .44771525-1 1v1c0 .55228475.4477153 1 1 1z"/><path id="Shape" d="m54 9c0 .55228475.4477153 1 1 1s1-.44771525 1-1v-1c0-.55228475-.4477153-1-1-1s-1 .44771525-1 1z"/><path id="Shape" d="m50 5c0 .55228475.4477153 1 1 1h1c.5522847 0 1-.44771525 1-1s-.4477153-1-1-1h-1c-.5522847 0-1 .44771525-1 1z"/><path id="Shape" d="m59 4h-1c-.5522847 0-1 .44771525-1 1s.4477153 1 1 1h1c.5522847 0 1-.44771525 1-1s-.4477153-1-1-1z"/><path id="Shape" d="m18.757 12-.707-.707c-.3923789-.3789722-1.0160848-.3735524-1.4018186.0121814s-.3911536 1.0094397-.0121814 1.4018186l.707.707c.2510745.2599566.6228779.3642126.9725073.2726972.3496295-.0915155.6226744-.3645604.7141899-.7141899.0915154-.3496294-.0127406-.7214328-.2726972-.9725073z"/><path id="Shape" d="m23 16.243c-.3923789-.3789722-1.0160848-.3735524-1.4018186.0121814s-.3911536 1.0094397-.0121814 1.4018186l.707.707c.3923789.3789722 1.0160848.3735524 1.4018186-.0121814s.3911536-1.0094397.0121814-1.4018186z"/><path id="Shape" d="m17.343 16.243-.707.707c-.2599566.2510745-.3642126.6228779-.2726972.9725073.0915155.3496295.3645604.6226744.7141899.7141899.3496294.0915154.7214328-.0127406.9725073-.2726972l.707-.707c.3789722-.3923789.3735524-1.0160848-.0121814-1.4018186s-1.0094397-.3911536-1.4018186-.0121814z"/><path id="Shape" d="m23.707 11.293c-.3904999-.3903819-1.0235001-.3903819-1.414 0l-.707.707c-.2599566.2510745-.3642126.6228779-.2726972.9725073.0915155.3496295.3645604.6226744.7141899.7141899.3496294.0915154.7214328-.0127406.9725073-.2726972l.707-.707c.3903819-.3904999.3903819-1.0235001 0-1.414z"/><path id="Shape" d="m43.414 38-.707-.707c-.3923789-.3789722-1.0160848-.3735524-1.4018186.0121814s-.3911536 1.0094397-.0121814 1.4018186l.707.707c.3923789.3789722 1.0160848.3735524 1.4018186-.0121814s.3911536-1.0094397.0121814-1.4018186z"/><path id="Shape" d="m47.656 42.243c-.2497527-.2659578-.624527-.3747909-.9778857-.2839745-.3533586.0908163-.6292143.3668672-.7197806.72029s.0185319.72812.2846663.9776845l.707.707c.3923789.3789722 1.0160848.3735524 1.4018186-.0121814s.3911536-1.0094397.0121814-1.4018186z"/><path id="Shape" d="m42 42.243-.707.707c-.2599566.2510745-.3642126.6228779-.2726972.9725073.0915155.3496295.3645604.6226744.7141899.7141899.3496294.0915154.7214328-.0127406.9725073-.2726972l.707-.707c.3789722-.3923789.3735524-1.0160848-.0121814-1.4018186s-1.0094397-.3911536-1.4018186-.0121814z"/><path id="Shape" d="m48.364 37.293c-.3904999-.3903819-1.0235001-.3903819-1.414 0l-.707.707c-.2661344.2495645-.3752326.6242617-.2846663.9776845s.366422.6294737.7197806.72029c.3533587.0908164.728133-.0180167.9778857-.2839745l.708-.707c.3903819-.3904999.3903819-1.0235001 0-1.414z"/></g></g></g></svg>