<?xml version="1.0" encoding="utf-8"?>
<!-- Generator: Adobe Illustrator 24.2.0, SVG Export Plug-In . SVG Version: 6.00 Build 0)  -->
<svg version="1.1" id="Layer_1" xmlns="http://www.w3.org/2000/svg" xmlns:xlink="http://www.w3.org/1999/xlink" x="0px" y="0px"
	 viewBox="0 0 137.1 21.4" style="enable-background:new 0 0 137.1 21.4;" xml:space="preserve">
<style type="text/css">
	.st0{fill:#94A4B8;}
	.st1{fill:#C25959;}
	.st2{enable-background:new    ;}
</style>
<g id="Layer_2_1_">
	<g id="Layer_1-2">
		<g>
			<path class="st0" d="M3,21.4c-0.3,0-0.6-0.1-0.9-0.3c-0.3-0.2-0.5-0.6-0.5-0.9L0,3.4c0-0.4,0.1-0.7,0.3-1C0.5,2.2,0.9,2,1.2,1.9
				l11.6-1.1c0.4,0,0.7,0.1,1,0.3s0.5,0.6,0.5,0.9L16,18.7c0.1,0.8-0.5,1.4-1.2,1.5L3.2,21.4C3.1,21.4,3.1,21.4,3,21.4z M13,1.8
				C12.9,1.8,12.9,1.8,13,1.8L1.3,2.9C1.2,2.9,1.1,3,1.1,3.1C1,3.1,1,3.2,1,3.3l1.7,16.7c0,0.1,0.1,0.2,0.1,0.3
				c0.1,0.1,0.2,0.1,0.3,0.1l11.6-1.1c0.2,0,0.4-0.2,0.3-0.4L13.3,2.1c0-0.1-0.1-0.2-0.1-0.3C13.1,1.8,13,1.8,13,1.8z"/>
		</g>
		<g>
			<path class="st1" d="M15.8,19.5H4.2c-0.8,0-1.4-0.6-1.4-1.4V1.4C2.8,0.6,3.4,0,4.2,0h11.6c0.8,0,1.4,0.6,1.4,1.4v16.8
				C17.2,18.9,16.6,19.5,15.8,19.5z M4.2,1C4,1,3.8,1.2,3.8,1.4v16.8c0,0.2,0.2,0.4,0.4,0.4h11.6c0.2,0,0.4-0.2,0.4-0.4V1.4
				C16.2,1.2,16,1,15.8,1H4.2z"/>
		</g>
		<g class="st2">
			<path class="st1" d="M28.3,14.2c-0.7-0.4-1.2-1-1.6-1.7c-0.4-0.8-0.5-1.6-0.5-2.7c0-1,0.2-1.9,0.5-2.6c0.4-0.8,0.9-1.3,1.6-1.7
				C29,5,29.8,4.8,30.7,4.8c0.6,0,1.2,0.1,1.7,0.3c0.5,0.2,1,0.5,1.4,0.8c0.1,0.1,0.2,0.3,0.2,0.5c0,0.1,0,0.2-0.1,0.3
				C33.9,6.9,33.8,7,33.7,7c-0.1,0-0.2-0.1-0.4-0.2C32.8,6.4,32.4,6.2,32,6c-0.4-0.1-0.8-0.2-1.3-0.2c-1.1,0-1.9,0.3-2.5,1
				c-0.6,0.7-0.9,1.7-0.9,3c0,1.3,0.3,2.3,0.9,3c0.6,0.7,1.4,1,2.5,1c0.5,0,0.9-0.1,1.3-0.2c0.4-0.1,0.8-0.4,1.3-0.8
				c0.2-0.1,0.3-0.2,0.4-0.2c0.1,0,0.2,0,0.3,0.1s0.1,0.2,0.1,0.3c0,0.2-0.1,0.3-0.2,0.5c-0.4,0.4-0.9,0.7-1.4,0.8
				c-0.5,0.2-1.1,0.3-1.7,0.3C29.8,14.8,29,14.6,28.3,14.2z"/>
		</g>
		<g class="st2">
			<path class="st1" d="M40.3,10.4v3.8c0,0.2,0,0.3-0.1,0.4s-0.2,0.2-0.4,0.2c-0.2,0-0.3-0.1-0.4-0.2s-0.2-0.2-0.2-0.4v-0.7
				c-0.2,0.4-0.4,0.7-0.8,0.9c-0.4,0.2-0.8,0.3-1.2,0.3c-0.4,0-0.8-0.1-1.2-0.3c-0.4-0.2-0.7-0.4-0.9-0.7c-0.2-0.3-0.3-0.7-0.3-1
				c0-0.5,0.1-0.9,0.4-1.2s0.7-0.5,1.3-0.6s1.4-0.2,2.5-0.2h0.3v-0.5c0-0.6-0.1-1-0.3-1.2s-0.6-0.4-1.1-0.4c-0.6,0-1.3,0.2-1.9,0.5
				c-0.2,0.2-0.4,0.2-0.5,0.2c-0.1,0-0.2,0-0.3-0.1C35,9.3,35,9.2,35,9s0-0.2,0.1-0.3s0.2-0.2,0.4-0.3c0.3-0.2,0.7-0.3,1.1-0.4
				c0.4-0.1,0.8-0.2,1.2-0.2C39.5,7.8,40.3,8.7,40.3,10.4z M38.7,13.3c0.4-0.4,0.5-0.9,0.5-1.4v-0.4H39c-0.8,0-1.4,0-1.9,0.1
				c-0.4,0.1-0.7,0.2-0.9,0.3C36,12.1,36,12.3,36,12.7c0,0.4,0.1,0.7,0.4,0.9c0.3,0.2,0.6,0.4,1,0.4C37.9,13.9,38.3,13.7,38.7,13.3z
				"/>
		</g>
		<g class="st2">
			<path class="st1" d="M45.7,8.3c0,0.1,0,0.3-0.1,0.4c-0.1,0.1-0.2,0.1-0.4,0.2l-0.4,0c-0.6,0.1-1.1,0.3-1.4,0.7
				c-0.3,0.4-0.4,0.8-0.4,1.3v3.4c0,0.2-0.1,0.3-0.2,0.4c-0.1,0.1-0.2,0.1-0.4,0.1c-0.2,0-0.3,0-0.4-0.1c-0.1-0.1-0.2-0.2-0.2-0.4
				V8.4c0-0.2,0.1-0.3,0.2-0.4c0.1-0.1,0.2-0.1,0.4-0.1c0.1,0,0.3,0,0.4,0.1c0.1,0.1,0.2,0.2,0.2,0.4v0.8c0.2-0.4,0.5-0.7,0.8-0.9
				C44.1,8,44.5,7.9,45,7.8l0.2,0C45.5,7.8,45.7,8,45.7,8.3z"/>
		</g>
		<g class="st2">
			<path class="st1" d="M51.8,5C51.9,5.1,52,5.3,52,5.4v8.8c0,0.2-0.1,0.3-0.2,0.4c-0.1,0.1-0.2,0.2-0.4,0.2s-0.3-0.1-0.4-0.2
				c-0.1-0.1-0.1-0.2-0.1-0.4v-0.7c-0.2,0.4-0.5,0.8-0.9,1s-0.8,0.3-1.4,0.3c-0.6,0-1.1-0.1-1.6-0.4c-0.5-0.3-0.8-0.7-1.1-1.2
				c-0.2-0.5-0.4-1.1-0.4-1.8c0-0.7,0.1-1.3,0.4-1.8c0.2-0.5,0.6-0.9,1.1-1.2c0.5-0.3,1-0.4,1.6-0.4c0.5,0,1,0.1,1.4,0.3
				s0.7,0.6,0.9,1V5.4c0-0.2,0-0.3,0.1-0.4c0.1-0.1,0.2-0.1,0.4-0.1S51.7,4.9,51.8,5z M50.3,13.2c0.4-0.4,0.5-1.1,0.5-1.9
				c0-0.8-0.2-1.5-0.5-1.9s-0.9-0.7-1.5-0.7S47.6,9,47.3,9.4c-0.4,0.4-0.5,1.1-0.5,1.9c0,0.8,0.2,1.5,0.5,1.9
				c0.4,0.5,0.9,0.7,1.5,0.7S50,13.6,50.3,13.2z"/>
			<path class="st1" d="M54.6,14.6c-0.4-0.1-0.7-0.2-1-0.4c-0.2-0.1-0.3-0.2-0.4-0.3c-0.1-0.1-0.1-0.2-0.1-0.4c0-0.1,0-0.2,0.1-0.3
				s0.2-0.1,0.3-0.1s0.3,0.1,0.5,0.2c0.3,0.2,0.6,0.3,0.8,0.4c0.3,0.1,0.6,0.1,1,0.1c0.5,0,0.9-0.1,1.2-0.3c0.3-0.2,0.4-0.4,0.4-0.8
				c0-0.2-0.1-0.4-0.2-0.5s-0.3-0.2-0.5-0.3c-0.2-0.1-0.6-0.2-1.1-0.3c-0.8-0.2-1.4-0.4-1.7-0.7c-0.3-0.3-0.5-0.7-0.5-1.2
				c0-0.4,0.1-0.7,0.3-1.1c0.2-0.3,0.5-0.5,0.9-0.7c0.4-0.2,0.8-0.3,1.3-0.3c0.4,0,0.7,0,1,0.1c0.3,0.1,0.6,0.2,0.9,0.4
				c0.3,0.2,0.5,0.5,0.5,0.7c0,0.1,0,0.2-0.1,0.3c-0.1,0.1-0.2,0.1-0.3,0.1c-0.1,0-0.3-0.1-0.5-0.2c-0.3-0.2-0.5-0.3-0.7-0.4
				s-0.5-0.1-0.9-0.1c-0.4,0-0.8,0.1-1,0.3c-0.3,0.2-0.4,0.5-0.4,0.8c0,0.2,0,0.4,0.1,0.5c0.1,0.1,0.3,0.2,0.5,0.3
				c0.2,0.1,0.5,0.2,1,0.3c0.6,0.1,1.1,0.3,1.5,0.5s0.6,0.4,0.7,0.6c0.1,0.2,0.2,0.5,0.2,0.9c0,0.6-0.2,1-0.7,1.4
				c-0.5,0.4-1.1,0.5-1.9,0.5C55.3,14.8,54.9,14.7,54.6,14.6z"/>
		</g>
		<g class="st2">
			<path class="st1" d="M65.9,14.6c-0.1-0.1-0.2-0.2-0.2-0.4V5.5c0-0.2,0.1-0.3,0.2-0.4s0.2-0.2,0.4-0.2h5c0.2,0,0.3,0,0.4,0.1
				c0.1,0.1,0.1,0.2,0.1,0.4c0,0.1,0,0.3-0.1,0.3c-0.1,0.1-0.2,0.1-0.4,0.1h-4.5v3.4h4.2c0.2,0,0.3,0,0.4,0.1
				c0.1,0.1,0.1,0.2,0.1,0.4c0,0.1,0,0.3-0.1,0.3c-0.1,0.1-0.2,0.1-0.4,0.1h-4.2v4c0,0.2,0,0.3-0.1,0.4s-0.2,0.2-0.4,0.2
				C66.2,14.8,66,14.7,65.9,14.6z"/>
		</g>
		<g class="st2">
			<path class="st1" d="M73.7,14.4c-0.5-0.3-0.9-0.7-1.1-1.2c-0.3-0.5-0.4-1.1-0.4-1.8s0.1-1.3,0.4-1.8c0.3-0.5,0.6-0.9,1.1-1.2
				c0.5-0.3,1-0.4,1.7-0.4s1.2,0.1,1.7,0.4c0.5,0.3,0.9,0.7,1.1,1.2c0.3,0.5,0.4,1.1,0.4,1.8s-0.1,1.3-0.4,1.8
				c-0.3,0.5-0.6,0.9-1.1,1.2c-0.5,0.3-1,0.4-1.7,0.4S74.2,14.6,73.7,14.4z M76.9,13.2c0.4-0.4,0.5-1.1,0.5-1.9
				c0-0.8-0.2-1.5-0.5-1.9c-0.4-0.4-0.9-0.7-1.5-0.7s-1.2,0.2-1.5,0.7s-0.5,1.1-0.5,1.9c0,0.8,0.2,1.5,0.5,1.9s0.9,0.7,1.5,0.7
				C76.1,13.9,76.6,13.6,76.9,13.2z"/>
			<path class="st1" d="M83.6,8.3c0,0.1,0,0.3-0.1,0.4c-0.1,0.1-0.2,0.1-0.4,0.2l-0.4,0c-0.6,0.1-1.1,0.3-1.4,0.7
				c-0.3,0.4-0.4,0.8-0.4,1.3v3.4c0,0.2-0.1,0.3-0.2,0.4c-0.1,0.1-0.2,0.1-0.4,0.1c-0.2,0-0.3,0-0.4-0.1c-0.1-0.1-0.2-0.2-0.2-0.4
				V8.4c0-0.2,0.1-0.3,0.2-0.4s0.2-0.1,0.4-0.1c0.1,0,0.3,0,0.4,0.1c0.1,0.1,0.2,0.2,0.2,0.4v0.8c0.2-0.4,0.5-0.7,0.8-0.9
				s0.8-0.3,1.2-0.4l0.2,0C83.4,7.8,83.6,8,83.6,8.3z"/>
		</g>
		<g class="st2">
			<path class="st1" d="M99.9,5c0.1-0.1,0.2-0.1,0.3-0.1c0.1,0,0.3,0,0.4,0.1c0.1,0.1,0.2,0.2,0.2,0.4c0,0.1,0,0.1,0,0.2l-3.1,8.8
				c0,0.1-0.1,0.2-0.2,0.3c-0.1,0.1-0.2,0.1-0.4,0.1c-0.1,0-0.2,0-0.4-0.1c-0.1-0.1-0.2-0.2-0.2-0.3l-2.7-7.7l-2.7,7.7
				c0,0.1-0.1,0.2-0.2,0.3c-0.1,0.1-0.2,0.1-0.4,0.1s-0.2,0-0.4-0.1c-0.1-0.1-0.2-0.2-0.2-0.3l-3.1-8.8c0-0.1,0-0.1,0-0.2
				c0-0.1,0.1-0.3,0.2-0.4c0.1-0.1,0.2-0.1,0.4-0.1c0.1,0,0.2,0,0.3,0.1c0.1,0.1,0.2,0.2,0.2,0.3l2.7,7.8l2.8-7.8
				c0-0.1,0.1-0.2,0.2-0.3c0.1-0.1,0.2-0.1,0.3-0.1c0.1,0,0.2,0,0.3,0.1c0.1,0.1,0.2,0.2,0.2,0.3l2.7,7.8l2.8-7.9
				C99.7,5.1,99.8,5,99.9,5z"/>
		</g>
		<g class="st2">
			<path class="st1" d="M101.8,14.4c-0.5-0.3-0.9-0.7-1.1-1.2c-0.3-0.5-0.4-1.1-0.4-1.8s0.1-1.3,0.4-1.8c0.3-0.5,0.6-0.9,1.1-1.2
				c0.5-0.3,1-0.4,1.7-0.4s1.2,0.1,1.7,0.4c0.5,0.3,0.9,0.7,1.1,1.2c0.3,0.5,0.4,1.1,0.4,1.8s-0.1,1.3-0.4,1.8
				c-0.3,0.5-0.6,0.9-1.1,1.2c-0.5,0.3-1.1,0.4-1.7,0.4S102.3,14.6,101.8,14.4z M105,13.2c0.4-0.4,0.5-1.1,0.5-1.9
				c0-0.8-0.2-1.5-0.5-1.9s-0.9-0.7-1.5-0.7s-1.2,0.2-1.5,0.7s-0.5,1.1-0.5,1.9c0,0.8,0.2,1.5,0.5,1.9c0.4,0.4,0.9,0.7,1.5,0.7
				C104.1,13.9,104.6,13.6,105,13.2z"/>
			<path class="st1" d="M117.5,10.5v3.7c0,0.2-0.1,0.3-0.2,0.4c-0.1,0.1-0.2,0.1-0.4,0.1c-0.2,0-0.3,0-0.4-0.1
				c-0.1-0.1-0.2-0.2-0.2-0.4v-3.7c0-0.6-0.1-1.1-0.3-1.3c-0.2-0.3-0.6-0.4-1-0.4c-0.6,0-1,0.2-1.3,0.6c-0.3,0.4-0.5,0.9-0.5,1.5
				v3.4c0,0.2-0.1,0.3-0.2,0.4c-0.1,0.1-0.2,0.1-0.4,0.1s-0.3,0-0.4-0.1c-0.1-0.1-0.2-0.2-0.2-0.4v-3.7c0-0.6-0.1-1.1-0.3-1.3
				c-0.2-0.3-0.6-0.4-1-0.4c-0.6,0-1,0.2-1.3,0.6s-0.5,0.9-0.5,1.5v3.4c0,0.2-0.1,0.3-0.2,0.4c-0.1,0.1-0.2,0.1-0.4,0.1
				s-0.3,0-0.4-0.1c-0.1-0.1-0.2-0.2-0.2-0.4V8.4c0-0.2,0.1-0.3,0.2-0.4c0.1-0.1,0.2-0.2,0.4-0.2c0.2,0,0.3,0,0.4,0.1
				s0.2,0.2,0.2,0.4V9c0.2-0.4,0.5-0.7,0.8-0.9s0.8-0.3,1.2-0.3c1,0,1.7,0.4,2.1,1.3c0.2-0.4,0.5-0.7,0.9-1c0.4-0.2,0.8-0.4,1.4-0.4
				C116.8,7.8,117.5,8.7,117.5,10.5z"/>
			<path class="st1" d="M124.5,13.3c0.1,0.1,0.1,0.2,0.1,0.3c0,0.2-0.2,0.4-0.5,0.6c-0.3,0.2-0.7,0.3-1.1,0.4
				c-0.4,0.1-0.7,0.1-1.1,0.1c-1,0-1.9-0.3-2.5-0.9s-0.9-1.5-0.9-2.6c0-0.7,0.1-1.3,0.4-1.8c0.3-0.5,0.6-0.9,1.1-1.2s1-0.4,1.7-0.4
				c0.9,0,1.6,0.3,2.1,0.9s0.8,1.3,0.8,2.3c0,0.2,0,0.3-0.1,0.4c-0.1,0.1-0.2,0.1-0.4,0.1h-4.4c0.1,1.6,0.8,2.4,2.3,2.4
				c0.4,0,0.7,0,0.9-0.1c0.3-0.1,0.5-0.2,0.8-0.4c0.2-0.1,0.4-0.2,0.5-0.2C124.3,13.1,124.4,13.2,124.5,13.3z M120.4,9.2
				c-0.4,0.4-0.6,0.9-0.6,1.6h3.9c0-0.7-0.2-1.2-0.5-1.6s-0.8-0.5-1.4-0.5C121.2,8.7,120.7,8.8,120.4,9.2z"/>
			<path class="st1" d="M131.5,10.5v3.7c0,0.2,0,0.3-0.1,0.4c-0.1,0.1-0.2,0.1-0.4,0.1s-0.3,0-0.4-0.1c-0.1-0.1-0.2-0.2-0.2-0.4
				v-3.7c0-0.6-0.1-1.1-0.4-1.4c-0.2-0.3-0.6-0.4-1.2-0.4c-0.6,0-1.1,0.2-1.5,0.6s-0.6,0.9-0.6,1.5v3.4c0,0.2,0,0.3-0.1,0.4
				c-0.1,0.1-0.2,0.1-0.4,0.1s-0.3,0-0.4-0.1c-0.1-0.1-0.2-0.2-0.2-0.4V8.4c0-0.2,0-0.3,0.2-0.4c0.1-0.1,0.2-0.2,0.4-0.2
				c0.2,0,0.3,0.1,0.4,0.2c0.1,0.1,0.1,0.2,0.1,0.4v0.7c0.2-0.4,0.5-0.7,0.9-0.9c0.4-0.2,0.8-0.3,1.4-0.3
				C130.7,7.8,131.5,8.7,131.5,10.5z"/>
		</g>
		<g class="st2">
			<path class="st1" d="M132.9,4.1c0,0.1-0.1,0.2-0.2,0.2h-0.4v1.2c0,0.1,0,0.1-0.1,0.2s-0.1,0.1-0.2,0.1s-0.1,0-0.2-0.1
				s-0.1-0.1-0.1-0.2V4.3h-0.4c-0.2,0-0.2-0.1-0.2-0.2c0-0.1,0-0.1,0.1-0.2c0,0,0.1,0,0.2,0h1.2C132.8,3.9,132.9,4,132.9,4.1z
				 M134.9,3.9c0,0,0.1,0.1,0.1,0.2v1.4c0,0.1,0,0.1-0.1,0.2c0,0-0.1,0.1-0.2,0.1c-0.1,0-0.1,0-0.1-0.1c0,0-0.1-0.1-0.1-0.2V4.8
				l-0.3,0.5c0,0.1-0.1,0.1-0.1,0.1c0,0-0.1,0-0.1,0c0,0-0.1,0-0.1,0s-0.1-0.1-0.1-0.1l-0.3-0.5v0.7c0,0.1,0,0.1-0.1,0.2
				c0,0-0.1,0.1-0.2,0.1c-0.1,0-0.1,0-0.2-0.1s-0.1-0.1-0.1-0.2V4.1c0-0.1,0-0.1,0.1-0.2c0,0,0.1-0.1,0.2-0.1c0.1,0,0.2,0.1,0.2,0.2
				l0.5,0.9l0.5-0.9c0.1-0.1,0.1-0.2,0.2-0.2C134.8,3.9,134.8,3.9,134.9,3.9z"/>
		</g>
	</g>
</g>
</svg>
