<svg xmlns="http://www.w3.org/2000/svg" xmlns:xlink="http://www.w3.org/1999/xlink" width="557.944" height="504.928" viewBox="0 0 557.944 504.928"><defs><clipPath id="a"><rect width="527" height="462" transform="translate(0.168 -0.325)" fill="#fff" stroke="#707070" stroke-width="1"/></clipPath><filter id="b" x="79.256" y="28.973" width="360.137" height="446.267" filterUnits="userSpaceOnUse"><feOffset dy="3" input="SourceAlpha"/><feGaussianBlur stdDeviation="3" result="c"/><feFlood flood-opacity="0.161"/><feComposite operator="in" in2="c"/><feComposite in="SourceGraphic"/></filter><filter id="d" x="140.651" y="41.288" width="302.302" height="412.015" filterUnits="userSpaceOnUse"><feOffset dy="3" input="SourceAlpha"/><feGaussianBlur stdDeviation="3" result="e"/><feFlood flood-opacity="0.161"/><feComposite operator="in" in2="e"/><feComposite in="SourceGraphic"/></filter><filter id="f" x="135.998" y="24.081" width="370.507" height="451.582" filterUnits="userSpaceOnUse"><feOffset dy="3" input="SourceAlpha"/><feGaussianBlur stdDeviation="3" result="g"/><feFlood flood-opacity="0.161"/><feComposite operator="in" in2="g"/><feComposite in="SourceGraphic"/></filter></defs><g transform="translate(27.472 -0.182)"><path d="M199.725,0C310.031,0,399.451,89.59,399.451,200.106s-89.42,200.106-199.725,200.106S0,310.621,0,200.106,89.42,0,199.725,0Z" transform="translate(49.254 104.899)" fill="#efefef"/><g transform="matrix(0.998, -0.07, 0.07, 0.998, -27.617, 37.28)" clip-path="url(#a)"><g transform="matrix(0.891, -0.454, 0.454, 0.891, -18.613, 118.733)"><g transform="matrix(0.86, 0.52, -0.52, 0.86, 89.72, -129.07)" filter="url(#b)"><rect width="376.891" height="258.641" rx="8" transform="translate(179.43 463.24) rotate(-104)" fill="#b2b3b6"/></g><g transform="matrix(0.86, 0.52, -0.52, 0.86, 89.72, -129.07)" filter="url(#d)"><rect width="376.891" height="258.641" rx="8" transform="translate(149.65 423.26) rotate(-86)" fill="#fff"/></g><g transform="matrix(0.86, 0.52, -0.52, 0.86, 89.72, -129.07)" filter="url(#f)"><rect width="376.891" height="258.641" rx="10" transform="matrix(0.28, -0.96, 0.96, 0.28, 145, 392.37)" fill="#d05e55"/></g><path d="M0,0,17.544.163l.721,218.763L.721,218.763Z" transform="translate(265.759 72.746) rotate(-43)" fill="#f0a8a6"/><path d="M0,0,20.4.163l.742,193.649-20.4-.163Z" transform="translate(241.807 95.093) rotate(-43)" fill="#f0a8a6"/><path d="M0,0,18.583.163l.676,193.649L.676,193.649Z" transform="translate(218.082 117.566) rotate(-43)" fill="#f0a8a6"/></g></g></g></svg>