<svg height="512" viewBox="0 0 512 512" width="512" xmlns="http://www.w3.org/2000/svg"><g id="Flushed_Face" data-name="Flushed Face"><g id="Outline" fill="#718096"><path d="m506.8 204.41a254.636 254.636 0 0 0 -38.52-91.54 256.734 256.734 0 0 0 -112.631-92.75 254.042 254.042 0 0 0 -48.059-14.92 257.909 257.909 0 0 0 -128.2 6.46 255.074 255.074 0 0 0 -67.35 32.62 8 8 0 1 0 9.01 13.22 240.01 240.01 0 0 1 304.65 368.2 240 240 0 0 1 -350.81-327.18 8 8 0 1 0 -12.07-10.5 255.9 255.9 0 1 0 443.98 116.39z"/><path d="m91.34 78.55a7.96 7.96 0 0 0 5.23-1.95l.08-.07a8 8 0 0 0 -10.62-11.97l-.02.02a8.013 8.013 0 0 0 -.65 11.279 8.011 8.011 0 0 0 5.98 2.691z"/><path d="m376 168a24 24 0 1 0 24 24 24.028 24.028 0 0 0 -24-24zm0 32a8 8 0 1 1 8-8 8.009 8.009 0 0 1 -8 8z"/><path d="m136 216a24 24 0 1 0 -24-24 24.027 24.027 0 0 0 24 24zm0-32a8 8 0 1 1 -8 8 8.009 8.009 0 0 1 8-8z"/><path d="m136 272a80 80 0 1 0 -80-80 80.091 80.091 0 0 0 80 80zm0-144a64 64 0 1 1 -64 64 64.072 64.072 0 0 1 64-64z"/><path d="m376 112a80 80 0 1 0 80 80 80.091 80.091 0 0 0 -80-80zm0 144a64 64 0 1 1 64-64 64.072 64.072 0 0 1 -64 64z"/><path d="m272 352a8 8 0 0 0 0-16h-32a8 8 0 0 0 0 16z"/><path d="m354.343 290.343-32 32a8 8 0 0 0 11.314 11.314l32-32a8 8 0 0 0 -11.314-11.314z"/><path d="m376 336a7.974 7.974 0 0 0 5.657-2.343l32-32a8 8 0 0 0 -11.314-11.314l-32 32a8 8 0 0 0 5.657 13.657z"/><path d="m424 336a7.974 7.974 0 0 0 5.657-2.343l32-32a8 8 0 0 0 -11.314-11.314l-32 32a8 8 0 0 0 5.657 13.657z"/><path d="m98.343 290.343-32 32a8 8 0 0 0 11.314 11.314l32-32a8 8 0 0 0 -11.314-11.314z"/><path d="m120 336a7.976 7.976 0 0 0 5.657-2.343l32-32a8 8 0 1 0 -11.314-11.314l-32 32a8 8 0 0 0 5.657 13.657z"/><path d="m168 336a7.976 7.976 0 0 0 5.657-2.343l32-32a8 8 0 1 0 -11.314-11.314l-32 32a8 8 0 0 0 5.657 13.657z"/></g></g></svg>